<?xml version="1.0" encoding="UTF-8"?>
<svg version="1.1" xmlns="http://www.w3.org/2000/svg" width="109" height="129">
<path d="M0 0 C35.97 0 71.94 0 109 0 C109 42.57 109 85.14 109 129 C73.03 129 37.06 129 0 129 C0 86.43 0 43.86 0 0 Z " fill="#E3F3FA" transform="translate(0,0)"/>
<path d="M0 0 C-0.33 1.65 -0.66 3.3 -1 5 C-1.80824219 4.72285156 -2.61648437 4.44570312 -3.44921875 4.16015625 C-4.51785156 3.79792969 -5.58648437 3.43570312 -6.6875 3.0625 C-7.74324219 2.70285156 -8.79898438 2.34320312 -9.88671875 1.97265625 C-21.37460039 -1.61640589 -33.05308836 -1.03930069 -44 4 C-55.24945973 10.24020183 -63.73353749 19.81323273 -68 32 C-71.14901474 44.17619034 -69.61827217 57.52207673 -63.64453125 68.48828125 C-57.82624492 77.76946185 -50.87979573 83.35565158 -41 88 C-40.28070313 88.34289062 -39.56140625 88.68578125 -38.8203125 89.0390625 C-26.4852216 94.01964637 -13.71553658 90.95657317 -2 86 C-1.01 85.34 -0.02 84.68 1 84 C-0.98 83.01 -0.98 83.01 -3 82 C-2.46513721 77.49613214 -1.34696601 74.35892841 0.95703125 70.46484375 C1.56925537 69.41844727 2.18147949 68.37205078 2.81225586 67.29394531 C3.47233643 66.18631836 4.13241699 65.07869141 4.8125 63.9375 C5.49523549 62.77631144 6.17694618 61.61451977 6.85766602 60.45214844 C8.23854598 58.09542543 9.62329016 55.74104279 11.01074219 53.38818359 C13.86158339 48.53251665 16.65298786 43.64390843 19.4375 38.75 C20.39960034 37.06372263 21.36183524 35.37752202 22.32421875 33.69140625 C22.7732959 32.9039502 23.22237305 32.11649414 23.68505859 31.30517578 C25.70461916 27.76475787 27.72732984 24.22614197 29.75 20.6875 C30.70132813 19.02267578 30.70132813 19.02267578 31.671875 17.32421875 C32.32929688 16.17373047 32.32929688 16.17373047 33 15 C33.33 15 33.66 15 34 15 C34 50.64 34 86.28 34 123 C-1.97 123 -37.94 123 -75 123 C-75.04125 109.696875 -75.0825 96.39375 -75.125 82.6875 C-75.14320801 78.50666748 -75.16141602 74.32583496 -75.18017578 70.01831055 C-75.18920898 64.86291504 -75.18920898 64.86291504 -75.19088745 62.43977356 C-75.19393315 60.76857942 -75.20091364 59.09738932 -75.21115112 57.42622375 C-75.32187126 38.37912961 -73.33360614 22.51913752 -59.4453125 8.18359375 C-55.28883804 4.47198157 -50.91588409 1.60659395 -46 -1 C-45.21753906 -1.43441406 -44.43507813 -1.86882813 -43.62890625 -2.31640625 C-30.4085904 -8.38717529 -12.59858287 -6.6558551 0 0 Z " fill="#F2F5F8" transform="translate(75,6)"/>
<path d="M0 0 C0.33 0 0.66 0 1 0 C1 35.64 1 71.28 1 108 C-3.95 108 -8.9 108 -14 108 C-13.67 106.68 -13.34 105.36 -13 104 C-11.78283576 99.38334063 -11.78283576 99.38334063 -13.1875 95.125 C-15.12945819 93.91964664 -16.75547595 93.3869869 -19 93 C-19 92.34 -19 91.68 -19 91 C-16.69 91 -14.38 91 -12 91 C-11.67 89.68 -11.34 88.36 -11 87 C-14.16338666 86.89185003 -16.98185601 86.99741516 -20 88 C-21.97538375 90.45237931 -23.02945538 93.02049588 -24 96 C-22.329375 96.185625 -22.329375 96.185625 -20.625 96.375 C-17 97 -17 97 -15 99 C-15.375 101.625 -15.375 101.625 -16 104 C-19.20328979 105.03614385 -21.31005827 104.92847968 -24.5625 104.125 C-25.32691406 103.94195312 -26.09132813 103.75890625 -26.87890625 103.5703125 C-28.60314807 103.1067042 -30.30614397 102.56461868 -32 102 C-33.60546875 99.1640625 -33.60546875 99.1640625 -35.1875 95.625 C-35.71730469 94.46226563 -36.24710937 93.29953125 -36.79296875 92.1015625 C-38 89 -38 89 -38 86 C-39.32 85.67 -40.64 85.34 -42 85 C-42 81 -42 81 -40.625 79.0625 C-38.19837644 77.1558672 -36.15512396 76.08890911 -33.375 74.8125 C-21.29053953 68.96633033 -14.25565229 59.4013882 -9.6875 47.0625 C-9.11338572 45.37891594 -8.54896888 43.69195025 -8 42 C-7.67 41.01 -7.34 40.02 -7 39 C-6.90400481 36.46742101 -6.86062965 33.96907608 -6.875 31.4375 C-6.87113281 30.75236328 -6.86726563 30.06722656 -6.86328125 29.36132812 C-6.81277382 25.55437812 -6.81277382 25.55437812 -8 22 C-10.91053256 24.91053256 -10.24903019 27.97686072 -10.3125 31.875 C-10.8247684 44.60012151 -15.64163637 54.37521764 -24 64 C-28.37647059 67.95294118 -28.37647059 67.95294118 -32.3125 68.25 C-33.199375 68.1675 -34.08625 68.085 -35 68 C-35.82787292 65.14801721 -36.19555845 63.52399423 -35.14233398 60.7019043 C-34.68157471 59.91726807 -34.22081543 59.13263184 -33.74609375 58.32421875 C-33.22821289 57.42582275 -32.71033203 56.52742676 -32.17675781 55.60180664 C-31.60280273 54.64008545 -31.02884766 53.67836426 -30.4375 52.6875 C-29.85194336 51.68001709 -29.26638672 50.67253418 -28.66308594 49.63452148 C-26.78846831 46.41516687 -24.89455396 43.20765419 -23 40 C-21.77577512 37.90456149 -20.55309618 35.80821896 -19.33203125 33.7109375 C-17.55200947 30.65420046 -15.77088739 27.59817457 -13.98364258 24.5456543 C-9.22512516 16.41733377 -4.57612156 8.23217635 0 0 Z " fill="#F3F6F7" transform="translate(108,21)"/>
<path d="M0 0 C1.27230469 0.00902344 2.54460937 0.01804688 3.85546875 0.02734375 C5.31919922 0.04474609 5.31919922 0.04474609 6.8125 0.0625 C5.388294 3.87212064 3.63341117 7.30653968 1.609375 10.83203125 C0.96524658 11.95714111 0.32111816 13.08225098 -0.3425293 14.24145508 C-1.04065355 15.45275161 -1.73898172 16.66393064 -2.4375 17.875 C-3.15485158 19.12320608 -3.87205358 20.37149814 -4.58911133 21.61987305 C-6.42528697 24.81375334 -8.26640251 28.00475626 -10.10919189 31.19482422 C-11.15078658 32.99891079 -12.19066571 34.80397422 -13.22998047 36.609375 C-15.107101 39.86724178 -16.98978804 43.12181006 -18.875 46.375 C-19.43799805 47.35122314 -20.00099609 48.32744629 -20.58105469 49.33325195 C-29.20515873 64.14958761 -29.20515873 64.14958761 -37.1875 68.0625 C-35.7025 69.0525 -35.7025 69.0525 -34.1875 70.0625 C-35.72061285 75.57818187 -38.37502444 80.08284852 -41.3125 84.9375 C-42.01439453 86.113125 -42.01439453 86.113125 -42.73046875 87.3125 C-43.87768108 89.23232472 -45.0301007 91.14880561 -46.1875 93.0625 C-47.62439043 92.93602047 -49.06044908 92.80006895 -50.49609375 92.66015625 C-51.29587646 92.58547119 -52.09565918 92.51078613 -52.91967773 92.43383789 C-55.82341517 91.95837394 -57.84014852 90.80408336 -60.1875 89.0625 C-59.60058576 85.07945195 -58.36346483 82.26533083 -56.30859375 78.81640625 C-55.72029785 77.81996094 -55.13200195 76.82351562 -54.52587891 75.796875 C-53.58494385 74.22679688 -53.58494385 74.22679688 -52.625 72.625 C-51.3498028 70.47032285 -50.07506138 68.31537588 -48.80078125 66.16015625 C-47.87193115 64.59612061 -47.87193115 64.59612061 -46.92431641 63.00048828 C-44.68286727 59.20886629 -42.4877064 55.39240779 -40.3125 51.5625 C-39.69632813 50.4796875 -39.08015625 49.396875 -38.4453125 48.28125 C-38.03023437 47.5490625 -37.61515625 46.816875 -37.1875 46.0625 C-35.5375 46.7225 -33.8875 47.3825 -32.1875 48.0625 C-32.20522461 47.36229736 -32.22294922 46.66209473 -32.24121094 45.94067383 C-32.01782255 36.32789411 -28.27983434 29.70480846 -23.4375 21.75 C-22.7115637 20.51613555 -21.98759296 19.2811125 -21.265625 18.04492188 C-10.59867593 -0.09723556 -10.59867593 -0.09723556 0 0 Z " fill="#495A97" transform="translate(92.1875,1.9375)"/>
<path d="M0 0 C1.55329542 3.10659085 2.41896471 5.35413033 3.25 8.625 C6.96178002 21.24505206 15.16980578 30.79486488 26.26953125 37.53125 C29.75717188 39.40729131 33.26991284 40.68756192 37 42 C37.33 42.66 37.66 43.32 38 44 C43.61 44.33 49.22 44.66 55 45 C54.01 45.66 53.02 46.32 52 47 C52.66 47.99 53.32 48.98 54 50 C52.73542969 50.06058594 51.47085938 50.12117188 50.16796875 50.18359375 C48.50780129 50.26800904 46.84764563 50.35265655 45.1875 50.4375 C44.35412109 50.47681641 43.52074219 50.51613281 42.66210938 50.55664062 C41.85966797 50.59853516 41.05722656 50.64042969 40.23046875 50.68359375 C39.12288208 50.73858032 39.12288208 50.73858032 37.99291992 50.79467773 C35.792505 50.94842141 35.792505 50.94842141 33 52 C33 51.34 33 50.68 33 50 C29.76794721 50.71259223 29.76794721 50.71259223 28.39453125 53.72265625 C27.87246094 54.82480469 27.35039062 55.92695312 26.8125 57.0625 C26.28269531 58.16722656 25.75289062 59.27195313 25.20703125 60.41015625 C24.80871094 61.26480469 24.41039063 62.11945313 24 63 C21.87838666 60.87838666 21.07013751 59.2266841 19.875 56.5 C19.52179687 55.7059375 19.16859375 54.911875 18.8046875 54.09375 C18 52 18 52 18 50 C15.525 50.495 15.525 50.495 13 51 C13.34933594 51.60585937 13.69867188 52.21171875 14.05859375 52.8359375 C17.44150058 59.06508606 18.69661784 63.92108295 19 71 C12.73 71 6.46 71 0 71 C0 47.57 0 24.14 0 0 Z " fill="#F4F6F7" transform="translate(0,58)"/>
<path d="M0 0 C6.258654 -0.5326514 10.45108785 1.18150494 16 4 C3.9127318 29.81451751 3.9127318 29.81451751 -7 35 C-6.01 35.99 -5.02 36.98 -4 38 C-16.34311623 61.06397769 -16.34311623 61.06397769 -22.6875 71.9375 C-23.09661621 72.64575928 -23.50573242 73.35401855 -23.92724609 74.08374023 C-26.75666332 78.87833166 -26.75666332 78.87833166 -29 80 C-37.26131687 74.47736626 -37.26131687 74.47736626 -39 71 C-38.55131862 67.27216332 -37.39703389 64.56740209 -35.49609375 61.35546875 C-35.00302734 60.51435547 -34.50996094 59.67324219 -34.00195312 58.80664062 C-33.48568359 57.94232422 -32.96941406 57.07800781 -32.4375 56.1875 C-31.91736328 55.30384766 -31.39722656 54.42019531 -30.86132812 53.50976562 C-29.5805605 51.33598572 -28.2933166 49.16632913 -27 47 C-24.08014819 47.68088981 -21.64877696 48.58101234 -19 50 C-19.165 49.38125 -19.33 48.7625 -19.5 48.125 C-19.7475 46.578125 -19.7475 46.578125 -20 45 C-20.10602539 44.34201416 -20.21205078 43.68402832 -20.32128906 43.00610352 C-21.05575262 34.25805198 -16.62310046 27.96634241 -12.25 20.8125 C-11.51101121 19.56955199 -10.7740162 18.32541633 -10.0390625 17.08007812 C-8.64673245 14.72702152 -7.24250816 12.38272384 -5.83007812 10.04150391 C-3.83300848 6.72246794 -1.90009841 3.3751748 0 0 Z " fill="#3E7AAA" transform="translate(56,9)"/>
<path d="M0 0 C-0.33 1.65 -0.66 3.3 -1 5 C-1.80824219 4.72285156 -2.61648437 4.44570312 -3.44921875 4.16015625 C-4.51785156 3.79792969 -5.58648437 3.43570312 -6.6875 3.0625 C-7.74324219 2.70285156 -8.79898438 2.34320312 -9.88671875 1.97265625 C-21.37460039 -1.61640589 -33.05308836 -1.03930069 -44 4 C-55.24945973 10.24020183 -63.73353749 19.81323273 -68 32 C-71.14901474 44.17619034 -69.61827217 57.52207673 -63.64453125 68.48828125 C-57.82624492 77.76946185 -50.87979573 83.35565158 -41 88 C-40.28070313 88.34289062 -39.56140625 88.68578125 -38.8203125 89.0390625 C-27.96209661 93.42332326 -16.1532894 91.57790201 -5.515625 87.60546875 C7.31053588 81.74818861 14.88640398 72.36381177 20.08203125 59.43359375 C21.38004528 54.57846893 21.58041738 49.8003625 21.54833984 44.78686523 C21.579581 41.1565589 21.69987616 39.37009491 24.02734375 36.5 C24.67832031 36.005 25.32929687 35.51 26 35 C29.73358586 47.14174263 26.32188757 59.68274413 20.8125 70.625 C13.43365547 83.00531058 2.55674519 91.52067998 -11.34765625 95.33984375 C-26.7053492 98.11572622 -41.40795307 95.98515727 -54.4375 87.02734375 C-64.57667836 79.00564624 -72.61458067 67.14985559 -74.79296875 54.19921875 C-76.23470073 38.88421675 -72.9963256 25.67100375 -63.92578125 13.1328125 C-58.77660267 7.04994085 -53.02282094 2.72377425 -46 -1 C-45.21753906 -1.43441406 -44.43507813 -1.86882813 -43.62890625 -2.31640625 C-30.4085904 -8.38717529 -12.59858287 -6.6558551 0 0 Z " fill="#40AAC3" transform="translate(75,6)"/>
<path d="M0 0 C2.7885289 -0.22107787 5.34653181 -0.28107535 8.125 -0.1875 C8.87910156 -0.17396484 9.63320312 -0.16042969 10.41015625 -0.14648438 C12.27374127 -0.11109985 14.13695978 -0.05729167 16 0 C12.49370691 7.27080924 8.61189778 14.24410068 4.5 21.1875 C-0.35137105 29.43553789 -5.124348 37.72066432 -9.8125 46.0625 C-10.88496662 47.95468224 -11.95787035 49.8466168 -13.03125 51.73828125 C-14.89818169 55.03107606 -16.73031919 58.3386921 -18.53125 61.66796875 C-19.29090845 63.02906929 -20.05126887 64.3897784 -20.8125 65.75 C-21.43769531 66.89984375 -22.06289062 68.0496875 -22.70703125 69.234375 C-26.23507375 73.48966305 -30.34710591 74.71737634 -35.75 75.29296875 C-36.4925 75.25816406 -37.235 75.22335938 -38 75.1875 C-39.1446875 75.14689453 -39.1446875 75.14689453 -40.3125 75.10546875 C-41.1478125 75.05326172 -41.1478125 75.05326172 -42 75 C-41.46323088 69.9738891 -39.05581499 66.37760591 -36.4375 62.1875 C-36.01275391 61.49462891 -35.58800781 60.80175781 -35.15039062 60.08789062 C-34.10690544 58.38783049 -33.05434704 56.69334524 -32 55 C-29.83125748 55.50603992 -28.00032373 55.99983813 -26 57 C-26.08048584 56.21093262 -26.16097168 55.42186523 -26.24389648 54.60888672 C-26.79950672 44.93111462 -24.17492172 39.1842616 -19.0625 31.125 C-18.37969971 29.99892334 -17.69689941 28.87284668 -16.9934082 27.71264648 C-15.63736429 25.4810214 -14.26975481 23.25637554 -12.88964844 21.03955078 C-10.82165762 17.71313144 -8.81736204 14.35331599 -6.82397461 10.98193359 C-4.62476011 7.26759968 -2.39445493 3.5916824 0 0 Z " fill="#426AA1" transform="translate(93,20)"/>
<path d="M0 0 C35.97 0 71.94 0 109 0 C109 6.6 109 13.2 109 20 C103.06 20 97.12 20 91 20 C93.25 11 93.25 11 96.125 6.5 C96.66382812 5.6440625 97.20265625 4.788125 97.7578125 3.90625 C98.16773437 3.2771875 98.57765625 2.648125 99 2 C96.74943278 2.11433363 94.49953326 2.24186436 92.25 2.375 C90.99703125 2.44460938 89.7440625 2.51421875 88.453125 2.5859375 C85.32105886 2.96150199 83.53716686 3.20091804 81 5 C79.46557968 6.9265894 79.46557968 6.9265894 78.25 9.125 C77.82203125 9.84945313 77.3940625 10.57390625 76.953125 11.3203125 C76.48132813 12.15175781 76.48132813 12.15175781 76 13 C74.95550089 9.86650268 75.06576355 9.01031744 76 6 C75.360625 5.896875 74.72125 5.79375 74.0625 5.6875 C71.53276742 5.11960085 69.3889981 4.39972862 66.98046875 3.48828125 C61.71055685 1.72169636 56.77715021 1.46187174 51.25 1.5 C49.80028809 1.50858032 49.80028809 1.50858032 48.32128906 1.51733398 C34.47551007 1.86173904 22.95102849 7.56065669 13.3125 17.5625 C6.38649506 26.03126433 2.08666882 36.1333118 1 47 C0.67 47 0.34 47 0 47 C0 31.49 0 15.98 0 0 Z " fill="#F4F5F7" transform="translate(0,0)"/>
<path d="M0 0 C-4.44368895 8.23576176 -9.02630503 16.38555574 -13.6875 24.5 C-14.18600464 25.37591797 -14.18600464 25.37591797 -14.69458008 26.26953125 C-15.67062226 27.98443761 -16.65357645 29.69540419 -17.63671875 31.40625 C-18.21123779 32.40978516 -18.78575684 33.41332031 -19.37768555 34.44726562 C-21.97626905 38.53617294 -24.73554079 40.70375274 -29 43 C-29.66 43 -30.32 43 -31 43 C-31 43.66 -31 44.32 -31 45 C-30.01 45.33 -29.02 45.66 -28 46 C-29.43652105 50.91441412 -31.54159615 55.00238358 -34.125 59.375 C-34.49753906 60.01566406 -34.87007812 60.65632813 -35.25390625 61.31640625 C-36.16434002 62.88048477 -37.08148191 64.44065534 -38 66 C-38.66 66 -39.32 66 -40 66 C-40.87216409 63.96595642 -41.72203505 61.92234514 -42.5625 59.875 C-43.03816406 58.73804688 -43.51382813 57.60109375 -44.00390625 56.4296875 C-45.35670101 51.77182947 -45.07931529 49.13316279 -42.88256836 44.79150391 C-41.37368457 42.11529108 -39.79394892 39.49379149 -38.1875 36.875 C-37.61016113 35.91811279 -37.03282227 34.96122559 -36.43798828 33.9753418 C-35.23383991 31.98028465 -34.02610429 29.9873886 -32.81494141 27.99658203 C-31.04868077 25.08037501 -29.30715942 22.15095041 -27.57421875 19.21484375 C-26.5078676 17.41402987 -25.4414636 15.61324729 -24.375 13.8125 C-23.87895264 12.96993652 -23.38290527 12.12737305 -22.87182617 11.25927734 C-22.40623291 10.47891113 -21.94063965 9.69854492 -21.4609375 8.89453125 C-21.05665527 8.21237549 -20.65237305 7.53021973 -20.23583984 6.82739258 C-15.34691692 -0.40168449 -8.02976066 -0.26852941 0 0 Z " fill="#2BAACA" transform="translate(54,8)"/>
<path d="M0 0 C-0.99 1.485 -0.99 1.485 -2 3 C-2.99 3 -3.98 3 -5 3 C-4.5359375 3.8971875 -4.5359375 3.8971875 -4.0625 4.8125 C-3 7 -3 7 -2 10 C-2.33 10.66 -2.66 11.32 -3 12 C-1.68 12.66 -0.36 13.32 1 14 C-1.31 15.32 -3.62 16.64 -6 18 C-5.01 18.66 -4.02 19.32 -3 20 C-4.53311285 25.51568187 -7.18752444 30.02034852 -10.125 34.875 C-10.59292969 35.65875 -11.06085937 36.4425 -11.54296875 37.25 C-12.69018108 39.16982472 -13.8426007 41.08630561 -15 43 C-16.43689043 42.87352047 -17.87294908 42.73756895 -19.30859375 42.59765625 C-20.50826782 42.48562866 -20.50826782 42.48562866 -21.73217773 42.37133789 C-24.63591517 41.89587394 -26.65264852 40.74158336 -29 39 C-28.40998666 34.8913447 -27.05656911 31.99559369 -24.9453125 28.4375 C-24.02298828 26.87128906 -24.02298828 26.87128906 -23.08203125 25.2734375 C-22.43621094 24.19320312 -21.79039063 23.11296875 -21.125 22 C-20.48691406 20.91976562 -19.84882812 19.83953125 -19.19140625 18.7265625 C-17.46850718 15.81310061 -15.73749134 12.90477776 -14 10 C-13.48163574 9.07703125 -12.96327148 8.1540625 -12.42919922 7.203125 C-11 5 -11 5 -8.8125 4.1875 C-8.214375 4.125625 -7.61625 4.06375 -7 4 C-7 3.01 -7 2.02 -7 1 C-4.53721199 -0.231394 -2.7204945 -0.07159196 0 0 Z " fill="#358FB7" transform="translate(61,52)"/>
<path d="M0 0 C1.98 0 3.96 0 6 0 C7.98 3.96 9.96 7.92 12 12 C13.98 8.04 15.96 4.08 18 0 C19.32 0.33 20.64 0.66 22 1 C22.99 0.67 23.98 0.34 25 0 C25 0.66 25 1.32 25 2 C27.31 2 29.62 2 32 2 C32 8.27 32 14.54 32 21 C23.75 21 15.5 21 7 21 C6.01 17.04 5.02 13.08 4 9 C2.71899691 5.92559258 1.47513684 2.96524968 0 0 Z " fill="#EFF4F7" transform="translate(12,108)"/>
<path d="M0 0 C0.99 0 1.98 0 3 0 C4.41922196 2.83844392 4.25052191 4.84153316 4 8 C2.68652344 11.03613281 2.68652344 11.03613281 0.859375 14.203125 C0.53592102 14.76698914 0.21246704 15.33085327 -0.12078857 15.9118042 C-0.80388498 17.09524975 -1.49340251 18.27500985 -2.18896484 19.45117188 C-3.24955868 21.2492518 -4.28402712 23.06060472 -5.31640625 24.875 C-10.69848994 34.11337278 -10.69848994 34.11337278 -15 36 C-15.68753301 37.65816784 -16.35561283 39.32459336 -17 41 C-18.485 41.495 -18.485 41.495 -20 42 C-20 39.36 -20 36.72 -20 34 C-20.66 34 -21.32 34 -22 34 C-21.80816184 22.87338667 -16.27705564 13.17926808 -9 5 C-5.89546755 2.17769778 -5.41664048 2 -1 2 C-0.67 1.34 -0.34 0.68 0 0 Z " fill="#F1F5F7" transform="translate(27,13)"/>
<path d="M0 0 C-0.33 1.65 -0.66 3.3 -1 5 C-1.80824219 4.72285156 -2.61648437 4.44570312 -3.44921875 4.16015625 C-4.51785156 3.79792969 -5.58648437 3.43570312 -6.6875 3.0625 C-7.74324219 2.70285156 -8.79898438 2.34320312 -9.88671875 1.97265625 C-21.37460039 -1.61640589 -33.05308836 -1.03930069 -44 4 C-55.95564443 10.63193042 -64.83396864 21.06107728 -68.65234375 34.25390625 C-69.8919965 39.45682836 -70.49340656 44.68076893 -71 50 C-71.33 50 -71.66 50 -72 50 C-72.33 48.02 -72.66 46.04 -73 44 C-73.33 44 -73.66 44 -74 44 C-75.14005197 31.13007996 -70.15145232 20.77182216 -62 11 C-46.46713569 -6.08305037 -20.48052423 -10.81989959 0 0 Z " fill="#536195" transform="translate(75,6)"/>
<path d="M0 0 C0.33 0 0.66 0 1 0 C1 1.65 1 3.3 1 5 C1.99 5.33 2.98 5.66 4 6 C4.33 6.99 4.66 7.98 5 9 C5.66 8.34 6.32 7.68 7 7 C7.99 7 8.98 7 10 7 C11.0308522 9.65004819 11.10372876 10.7359076 10.04711914 13.42602539 C8.40937602 16.31990928 6.75433112 19.19982602 5.0625 22.0625 C4.50498047 23.06861328 3.94746094 24.07472656 3.37304688 25.11132812 C-1.42287806 33.29775872 -1.42287806 33.29775872 -6.12890625 35.171875 C-9.24124505 35.8376831 -11.84206171 36.33552836 -15 36.1875 C-16.1446875 36.14689453 -16.1446875 36.14689453 -17.3125 36.10546875 C-18.1478125 36.05326172 -18.1478125 36.05326172 -19 36 C-18.46323088 30.9738891 -16.05581499 27.37760591 -13.4375 23.1875 C-13.01275391 22.49462891 -12.58800781 21.80175781 -12.15039062 21.08789062 C-11.10690544 19.38783049 -10.05434704 17.69334524 -9 16 C-6.83125748 16.50603992 -5.00032373 16.99983813 -3 18 C-3.03480469 17.11957031 -3.06960937 16.23914063 -3.10546875 15.33203125 C-3.14607422 13.58986328 -3.14607422 13.58986328 -3.1875 11.8125 C-3.22230469 10.66394531 -3.25710937 9.51539062 -3.29296875 8.33203125 C-2.97545546 4.72084678 -2.15237035 2.87886312 0 0 Z " fill="#398FB6" transform="translate(70,59)"/>
<path d="M0 0 C4.45845302 1.22991808 8.50654915 2.90808845 12.625 5 C9.7421797 11.15677702 6.52670703 17.11724765 3.125 23 C2.75769775 23.6587915 2.39039551 24.31758301 2.01196289 24.99633789 C0.23400522 28.01717787 -1.00624695 29.80940853 -4.15625 31.4375 C-4.8884375 31.623125 -5.620625 31.80875 -6.375 32 C-6.375 29 -6.375 29 -4.375 27 C-6.025 27.33 -7.675 27.66 -9.375 28 C-9.375 27.34 -9.375 26.68 -9.375 26 C-9.87773438 25.55527344 -10.38046875 25.11054687 -10.8984375 24.65234375 C-12.375 23 -12.375 23 -12.4765625 20.94140625 C-10.96531002 13.39753118 -8.04066512 2.38241929 0 0 Z " fill="#4A5996" transform="translate(59.375,8)"/>
<path d="M0 0 C1.31157516 2.62315032 0.89649988 4.23033436 0.5625 7.125 C0.46066406 8.03507812 0.35882813 8.94515625 0.25390625 9.8828125 C0.17011719 10.58148438 0.08632812 11.28015625 0 12 C0.886875 11.34 1.77375 10.68 2.6875 10 C5.98111986 8.01139933 7.28251873 7.56264926 11 8 C11 15.6394561 4.65146271 23.54158346 0.9375 30.0625 C0.5142041 30.8251416 0.0909082 31.5877832 -0.34521484 32.37353516 C-0.75852051 33.08687012 -1.17182617 33.80020508 -1.59765625 34.53515625 C-1.96383057 35.178479 -2.33000488 35.82180176 -2.70727539 36.48461914 C-4.35648765 38.41788835 -5.50325503 38.72066335 -8 39 C-8.66 38.67 -9.32 38.34 -10 38 C-10.625 35.9375 -10.625 35.9375 -11 34 C-11.33 34 -11.66 34 -12 34 C-12 32.35 -12 30.7 -12 29 C-10.68 28.34 -9.36 27.68 -8 27 C-9.98 27.33 -11.96 27.66 -14 28 C-13.67 28.99 -13.34 29.98 -13 31 C-14.32 31 -15.64 31 -17 31 C-15.80100302 27.9168649 -14.52299523 24.93720508 -13 22 C-10.525 22.99 -10.525 22.99 -8 24 C-8.00902344 23.27296875 -8.01804687 22.5459375 -8.02734375 21.796875 C-7.76706878 12.97015861 -4.91454412 7.23708325 0 0 Z " fill="#4171A4" transform="translate(68,26)"/>
<path d="M0 0 C3.34430737 0.72366315 5.34262343 1.81715496 8 4 C7.01 4.495 7.01 4.495 6 5 C6 5.99 6 6.98 6 8 C7.32 8.33 8.64 8.66 10 9 C9.54625 9.99 9.0925 10.98 8.625 12 C7.4444424 14.70929809 6.80664122 16.92217263 6.1875 19.875 C5.03987786 24.9644547 2.05073661 28.85560309 -1 33 C-5.64418791 30.58859474 -9.27697386 28.65183633 -12 24 C-11.6066137 20.26725234 -10.3933873 17.5612406 -8.49609375 14.35546875 C-8.00302734 13.51435547 -7.50996094 12.67324219 -7.00195312 11.80664062 C-6.22754883 10.51016602 -6.22754883 10.51016602 -5.4375 9.1875 C-4.91736328 8.30384766 -4.39722656 7.42019531 -3.86132812 6.50976562 C-2.5805605 4.33598572 -1.2933166 2.16632913 0 0 Z " fill="#2E9CC0" transform="translate(29,56)"/>
<path d="M0 0 C-4.1185652 7.62769849 -8.33185857 15.1925666 -12.6875 22.6875 C-13.25533203 23.68716797 -13.82316406 24.68683594 -14.40820312 25.71679688 C-14.95798828 26.65974609 -15.50777344 27.60269531 -16.07421875 28.57421875 C-16.56494873 29.42588623 -17.05567871 30.27755371 -17.5612793 31.1550293 C-18.27344604 32.06828979 -18.27344604 32.06828979 -19 33 C-19.99 33 -20.98 33 -22 33 C-21.7215625 31.4221875 -21.7215625 31.4221875 -21.4375 29.8125 C-20.806221 26.2182376 -20.806221 26.2182376 -21.5625 23.625 C-22.24036521 19.55780874 -21.02942671 15.94143514 -20 12 C-19.48378173 9.96112353 -18.98664576 7.93513655 -18.5625 5.875 C-18 4 -18 4 -16 2 C-10.55075074 -0.00176504 -5.76166841 -0.19190569 0 0 Z " fill="#46629A" transform="translate(54,8)"/>
<path d="M0 0 C0.804375 0.33 1.60875 0.66 2.4375 1 C4.69681125 2.06059041 4.69681125 2.06059041 6 2 C6.08226668 5.04386724 5.97608217 7.07175348 5 10 C4.77082972 13.09379878 4.61930103 16.18622757 4.4765625 19.28515625 C4.24066406 20.62900391 4.24066406 20.62900391 4 22 C3.01 22.66 2.02 23.32 1 24 C1 24.66 1 25.32 1 26 C-1 27.25 -1 27.25 -4 28 C-6.85268897 26.97703944 -9.40624165 25.55754223 -12 24 C-11.42282622 20.28713583 -10.40601794 17.58258204 -8.49609375 14.35546875 C-8.00302734 13.51435547 -7.50996094 12.67324219 -7.00195312 11.80664062 C-6.22754883 10.51016602 -6.22754883 10.51016602 -5.4375 9.1875 C-4.91736328 8.30384766 -4.39722656 7.42019531 -3.86132812 6.50976562 C-2.5805605 4.33598572 -1.2933166 2.16632913 0 0 Z " fill="#32A5C5" transform="translate(44,67)"/>
<path d="M0 0 C3.87184995 6.19495992 2.7648385 15.46934012 1.27734375 22.3359375 C-2.11254976 33.01341586 -7.30763792 40.92588298 -15 49 C-15.495 47.515 -15.495 47.515 -16 46 C-16.66 45.67 -17.32 45.34 -18 45 C-17.48050781 44.40574219 -16.96101563 43.81148437 -16.42578125 43.19921875 C-7.82407246 32.97574601 -3.88392612 23.52062335 -3.5703125 10.24804688 C-3.39056968 5.94545312 -3.19597703 3.20452242 0 0 Z " fill="#449AB8" transform="translate(100,41)"/>
<path d="M0 0 C1.485 0.99 1.485 0.99 3 2 C3.66 1.34 4.32 0.68 5 0 C5.02578125 0.79921875 5.0515625 1.5984375 5.078125 2.421875 C5.91212254 18.57110008 11.26767526 30.03467954 23 41 C24.00343836 41.99654977 25.00452141 42.99549894 26 44 C24.68 43.67 23.36 43.34 22 43 C21.67 43.99 21.34 44.98 21 46 C9.84096717 37.24668074 1.79837831 25.27174582 0 11 C-0.14297126 7.32563854 -0.1236288 3.67452269 0 0 Z " fill="#429CBB" transform="translate(0,47)"/>
<path d="M0 0 C0.66 0.66 1.32 1.32 2 2 C1.79296875 4.2421875 1.79296875 4.2421875 1.1875 6.875 C0.89939453 8.17050781 0.89939453 8.17050781 0.60546875 9.4921875 C0.22731899 11.05845942 -0.17278149 12.61978393 -0.60546875 14.171875 C-1.14954746 16.0903909 -1.14954746 16.0903909 -0.5 18.375 C0.09380966 21.49250074 -0.44861667 23.89846877 -1 27 C-0.67 27.66 -0.34 28.32 0 29 C-0.5625 31 -0.5625 31 -2 33 C-5.125 34.25 -5.125 34.25 -8 35 C-7.67 32.36 -7.34 29.72 -7 27 C-7.99 27.33 -8.98 27.66 -10 28 C-10.99 27.01 -11.98 26.02 -13 25 C-11.40799441 19.14985897 -8.44263127 14.29481514 -5.375 9.125 C-4.859375 8.24585938 -4.34375 7.36671875 -3.8125 6.4609375 C-2.54664427 4.3042944 -1.27571593 2.15082012 0 0 Z " fill="#3B80AE" transform="translate(34,14)"/>
<path d="M0 0 C0.99 0 1.98 0 3 0 C4.34277732 2.7663534 5.67255228 5.53876211 7 8.3125 C7.3815625 9.09818359 7.763125 9.88386719 8.15625 10.69335938 C8.5171875 11.45068359 8.878125 12.20800781 9.25 12.98828125 C9.58515625 13.68477783 9.9203125 14.38127441 10.265625 15.09887695 C11 17 11 17 11 20 C9.35 20 7.7 20 6 20 C5.67 18.35 5.34 16.7 5 15 C2.03 15 -0.94 15 -4 15 C-4.99 17.475 -4.99 17.475 -6 20 C-6.99 20 -7.98 20 -9 20 C-8.40440894 15.13127946 -6.27522585 11.40671159 -3.9375 7.1875 C-3.56044922 6.49462891 -3.18339844 5.80175781 -2.79492188 5.08789062 C-1.86916148 3.38871015 -0.93537688 1.69390575 0 0 Z " fill="#4786AC" transform="translate(67,108)"/>
<path d="M0 0 C1.32 0.33 2.64 0.66 4 1 C4.33 2.32 4.66 3.64 5 5 C5.66 5 6.32 5 7 5 C6.34 8.63 5.68 12.26 5 16 C3.68 16 2.36 16 1 16 C1 16.66 1 17.32 1 18 C0.34 18 -0.32 18 -1 18 C-1 18.66 -1 19.32 -1 20 C-3.97 20 -6.94 20 -10 20 C-9.46323088 14.9738891 -7.05581499 11.37760591 -4.4375 7.1875 C-4.01275391 6.49462891 -3.58800781 5.80175781 -3.15039062 5.08789062 C-2.10690544 3.38783049 -1.05434704 1.69334524 0 0 Z " fill="#2CA0C2" transform="translate(61,75)"/>
<path d="M0 0 C5.28 0 10.56 0 16 0 C12.73630096 6.86502213 9.0941379 13.4728066 5.3125 20.0625 C4.82483154 20.92012939 4.33716309 21.77775879 3.8347168 22.66137695 C3.36976807 23.46534912 2.90481934 24.26932129 2.42578125 25.09765625 C2.00723877 25.82476807 1.58869629 26.55187988 1.1574707 27.30102539 C0 29 0 29 -2 30 C-1.64144234 26.23514452 -1.10791349 24.15696507 1.0625 21 C3.28307653 17.56168796 3.17340112 15.98822577 3 12 C3.65129797 10.65909241 4.31513275 9.32407669 5 8 C4.67 7.01 4.34 6.02 4 5 C3.34 5 2.68 5 2 5 C2 4.34 2 3.68 2 3 C1.34 2.67 0.68 2.34 0 2 C0 1.34 0 0.68 0 0 Z " fill="#4C478E" transform="translate(93,20)"/>
<path d="M0 0 C1.98 0 3.96 0 6 0 C7.98 3.96 9.96 7.92 12 12 C13.98 8.04 15.96 4.08 18 0 C18.99 0 19.98 0 21 0 C19.54884678 4.57888152 17.79418096 8.97649435 15.875 13.375 C15.59785156 14.01566406 15.32070313 14.65632813 15.03515625 15.31640625 C14.35899615 16.87856925 13.67981293 18.43942315 13 20 C11.68 20 10.36 20 9 20 C6.03 13.4 3.06 6.8 0 0 Z " fill="#419DBC" transform="translate(12,108)"/>
<path d="M0 0 C2.475 0.99 2.475 0.99 5 2 C4.52949219 2.71285156 4.05898438 3.42570312 3.57421875 4.16015625 C-3.65155426 15.27557933 -6.74723018 24.84591691 -8 38 C-8.33 38 -8.66 38 -9 38 C-9.33 36.02 -9.66 34.04 -10 32 C-10.33 32 -10.66 32 -11 32 C-12.11348512 19.42999018 -7.31309361 9.95183872 0 0 Z " fill="#4F749E" transform="translate(12,18)"/>
<path d="M0 0 C2.1640625 -0.29296875 2.1640625 -0.29296875 4.625 -0.1875 C5.44226563 -0.16042969 6.25953125 -0.13335937 7.1015625 -0.10546875 C8.04128906 -0.05326172 8.04128906 -0.05326172 9 0 C8.67 1.32 8.34 2.64 8 4 C5.69 4 3.38 4 1 4 C1 4.66 1 5.32 1 6 C1.763125 6.103125 2.52625 6.20625 3.3125 6.3125 C6.28160312 7.07203801 7.4219701 7.36995016 9 10 C8.93466459 13.65878308 8.76975083 16.04550898 6.4375 18.9375 C2.8556202 20.49883222 -0.10993102 20.19450345 -4 20 C-4.33 19.01 -4.66 18.02 -5 17 C-2.36 17 0.28 17 3 17 C3.33 15.35 3.66 13.7 4 12 C1.08235 10.0549 -0.62537285 9.54723683 -4 9 C-2.94124926 5.59687262 -1.99097846 2.98646769 0 0 Z " fill="#4E83A7" transform="translate(88,108)"/>
<path d="M0 0 C0.99 0.66 1.98 1.32 3 2 C3.04346799 3.99952758 3.039992 6.00039988 3 8 C3.89831016 10.30230766 3.89831016 10.30230766 5 12 C3.02 14.97 3.02 14.97 1 18 C-0.65 17.67 -2.3 17.34 -4 17 C-4.33 15.68 -4.66 14.36 -5 13 C-5.33 13 -5.66 13 -6 13 C-6 11.35 -6 9.7 -6 8 C-4.68 7.34 -3.36 6.68 -2 6 C-3.98 6.33 -5.96 6.66 -8 7 C-7.67 7.99 -7.34 8.98 -7 10 C-8.32 10 -9.64 10 -11 10 C-9.80100302 6.9168649 -8.52299523 3.93720508 -7 1 C-2.25 2.875 -2.25 2.875 0 4 C0 2.68 0 1.36 0 0 Z " fill="#3E80AE" transform="translate(62,47)"/>
<path d="M0 0 C0.33 0.66 0.66 1.32 1 2 C3.02463255 2.65213292 3.02463255 2.65213292 5 3 C5.33 2.34 5.66 1.68 6 1 C6.95024979 4.69541586 6.95024979 7.30458414 6 11 C4.68 11.33 3.36 11.66 2 12 C2 12.66 2 13.32 2 14 C2.99 14.33 3.98 14.66 5 15 C3.68139111 19.61513112 1.78644563 23.09897612 -1 27 C-2.60031344 23.79937313 -1.03173691 21.27728194 0 18 C-0.66 17.67 -1.32 17.34 -2 17 C-1.979375 16.030625 -1.95875 15.06125 -1.9375 14.0625 C-1.64381501 11.12534105 -1.64381501 11.12534105 -3 10 C-3.04063832 8.33382885 -3.042721 6.66611905 -3 5 C-2.01 4.67 -1.02 4.34 0 4 C0 2.68 0 1.36 0 0 Z " fill="#3595BB" transform="translate(21,39)"/>
<path d="M0 0 C6.27 0 12.54 0 19 0 C19 0.66 19 1.32 19 2 C16.69 2 14.38 2 12 2 C12 7.94 12 13.88 12 20 C10.35 20 8.7 20 7 20 C7 14.06 7 8.12 7 2 C4.69 2 2.38 2 0 2 C0 1.34 0 0.68 0 0 Z " fill="#459FBC" transform="translate(37,108)"/>
<path d="M0 0 C5.118695 0.98436442 8.91204787 2.45958477 13.4375 5.0625 C21.01914444 9.06257171 28.61324467 8.98012617 37 9 C37 9.66 37 10.32 37 11 C33.54196269 11.11795981 30.08445443 11.18782752 26.625 11.25 C25.17673828 11.30027344 25.17673828 11.30027344 23.69921875 11.3515625 C16.63331876 11.4464068 11.33933284 10.0805474 5 7 C3.96875 6.505 2.9375 6.01 1.875 5.5 C1.25625 5.005 0.6375 4.51 0 4 C0 2.68 0 1.36 0 0 Z " fill="#38AEC7" transform="translate(22,90)"/>
<path d="M0 0 C2.2102192 2.2102192 4.40524517 4.42501323 6.5625 6.6875 C8.85110294 9.18566176 8.85110294 9.18566176 12 10 C13.32 7.69 14.64 5.38 16 3 C17.32 3.66 18.64 4.32 20 5 C19.505 5.763125 19.01 6.52625 18.5 7.3125 C16.75631692 9.92363751 16.75631692 9.92363751 17 13 C21.39251833 15.02055843 25.15340923 16.40895235 30 17 C30 17.33 30 17.66 30 18 C33.96 18.33 37.92 18.66 42 19 C42 19.33 42 19.66 42 20 C27.48088341 20.71405491 16.50041321 18.54079031 5 9 C2.56520403 6.75316853 0.24020036 4.44048317 -2 2 C-1.34 1.34 -0.68 0.68 0 0 Z " fill="#D9F6FA" transform="translate(16,78)"/>
<path d="M0 0 C3 1 3 1 6 3 C6.38133299 4.9914056 6.71325582 6.99279077 7 9 C7.99 10.485 7.99 10.485 9 12 C8.34 12 7.68 12 7 12 C7.144375 12.9075 7.28875 13.815 7.4375 14.75 C7.52579996 20.8679261 3.18378207 26.05376714 0 31 C-1.65 30.67 -3.3 30.34 -5 30 C-3.68 29.67 -2.36 29.34 -1 29 C-1.33 28.01 -1.66 27.02 -2 26 C-1.34 26 -0.68 26 0 26 C0.33951619 24.43883181 0.67132544 22.87598662 1 21.3125 C1.185625 20.44238281 1.37125 19.57226562 1.5625 18.67578125 C1.99051964 16.05798258 2.03528151 13.64611294 2 11 C2.29749946 9.32656552 2.62127066 7.65694085 3 6 C1.68 5.34 0.36 4.68 -1 4 C-0.67 2.68 -0.34 1.36 0 0 Z " fill="#3596BA" transform="translate(46,64)"/>
<path d="M0 0 C1.24451915 3.59527755 0.70603283 6.31293967 0 10 C0 10.99 0 11.98 0 13 C-0.309375 14.7325 -0.309375 14.7325 -0.625 16.5 C-1.38944551 20.10936483 -1.38944551 20.10936483 1 23 C1 23.66 1 24.32 1 25 C1.66 25 2.32 25 3 25 C1.23570801 29.97209562 -1.3939166 34.43438061 -4 39 C-5.53271273 34.41201223 -4.02911182 32.22055258 -2 28 C-3.32 27.67 -4.64 27.34 -6 27 C-6 25.68 -6 24.36 -6 23 C-5.01 23 -4.02 23 -3 23 C-3.165 22.21625 -3.33 21.4325 -3.5 20.625 C-4.62371027 12.47810052 -4.79706045 6.8957744 0 0 Z " fill="#4088B1" transform="translate(40,37)"/>
<path d="M0 0 C0.79921875 0.01804687 1.5984375 0.03609375 2.421875 0.0546875 C3.02515625 0.07789063 3.6284375 0.10109375 4.25 0.125 C3.63511719 1.24648437 3.63511719 1.24648437 3.0078125 2.390625 C2.46898437 3.37546875 1.93015625 4.3603125 1.375 5.375 C0.84132813 6.34953125 0.30765625 7.3240625 -0.2421875 8.328125 C-1.45419466 10.57630408 -2.62547567 12.8322805 -3.75 15.125 C-5.4 14.795 -7.05 14.465 -8.75 14.125 C-8.564375 12.8875 -8.37875 11.65 -8.1875 10.375 C-7.80288777 7.36220423 -7.6625406 5.02489173 -8.75 2.125 C-5.68753253 0.34090198 -3.52920727 -0.10380021 0 0 Z " fill="#4D528F" transform="translate(49.75,7.875)"/>
<path d="M0 0 C1.16779666 3.50338999 1.06413833 4.49941825 0 8 C-1.46506745 10.89807489 -3.12748839 13.66289577 -4.8125 16.4375 C-5.25142578 17.17548828 -5.69035156 17.91347656 -6.14257812 18.67382812 C-8.64922988 22.86399636 -11.25487333 26.96229621 -14 31 C-14.66 30.67 -15.32 30.34 -16 30 C-14.11669748 23.4974387 -11.52301253 17.95384257 -8 12.1875 C-7.56171875 11.45080078 -7.1234375 10.71410156 -6.671875 9.95507812 C-4.60193888 6.50414547 -2.51448976 3.15138354 0 0 Z " fill="#E8F0F9" transform="translate(92,15)"/>
<path d="M0 0 C0.99 0.33 1.98 0.66 3 1 C3.99 1 4.98 1 6 1 C6.66 1.33 7.32 1.66 8 2 C8 2.66 8 3.32 8 4 C7.01 4 6.02 4 5 4 C4.8453125 5.175625 4.8453125 5.175625 4.6875 6.375 C4 9 4 9 1 11 C1.99 11.99 2.98 12.98 4 14 C1.36 18.95 -1.28 23.9 -4 29 C-5.07349791 24.70600835 -4.79682816 23.80504787 -3 20 C-2.34 20 -1.68 20 -1 20 C-0.7834375 19.071875 -0.7834375 19.071875 -0.5625 18.125 C0 16 0 16 1 14 C0.01 14.33 -0.98 14.66 -2 15 C-3.54198261 12.00170048 -4.17401983 10.62357105 -3.25 7.3125 C-2 5 -2 5 0 3 C0 2.01 0 1.02 0 0 Z " fill="#4973A4" transform="translate(48,33)"/>
<path d="M0 0 C2.36597032 3.70856459 2.26739289 6.98601908 2.25 11.3125 C2.25515625 12.58738281 2.2603125 13.86226562 2.265625 15.17578125 C1.98998799 19.14414357 1.22559061 22.24054943 0 26 C-0.66 24.68 -1.32 23.36 -2 22 C-2.99 24.475 -2.99 24.475 -4 27 C-5 24 -5 24 -4 21 C-3.80466923 17.41531864 -3.65511071 13.83682813 -3.5703125 10.24804688 C-3.39056968 5.94545312 -3.19597703 3.20452242 0 0 Z " fill="#508CAF" transform="translate(100,41)"/>
<path d="M0 0 C1.485 0.99 1.485 0.99 3 2 C3.66 1.34 4.32 0.68 5 0 C5.66 7.92 6.32 15.84 7 24 C6.01 24 5.02 24 4 24 C3.51891725 22.58398286 3.04021859 21.16715563 2.5625 19.75 C2.29566406 18.96109375 2.02882812 18.1721875 1.75390625 17.359375 C0.4099694 13.15347935 -0.1154327 9.69634685 -0.0625 5.25 C-0.05347656 4.26515625 -0.04445312 3.2803125 -0.03515625 2.265625 C-0.02355469 1.51796875 -0.01195312 0.7703125 0 0 Z " fill="#4E90B4" transform="translate(0,47)"/>
<path d="M0 0 C0.33 0.99 0.66 1.98 1 3 C0.54625 3.7425 0.0925 4.485 -0.375 5.25 C-2.30589836 8.51767415 -2.56884367 11.26331179 -3 15 C-4 16 -4 16 -6.375 16.25 C-9 16 -9 16 -10.8125 14.5 C-11.204375 14.005 -11.59625 13.51 -12 13 C-10.92435672 10.16421317 -10.22387589 9.13202937 -7.5625 7.5625 C-4.58942962 5.74965221 -3.65960683 4.00309808 -2 1 C-1.34 0.67 -0.68 0.34 0 0 Z " fill="#F2F5F7" transform="translate(63,31)"/>
<path d="M0 0 C5.69139902 1.09698167 10.74567937 2.54053077 16 5 C15.67 6.65 15.34 8.3 15 10 C14.19175781 9.72285156 13.38351563 9.44570312 12.55078125 9.16015625 C11.48214844 8.79792969 10.41351563 8.43570312 9.3125 8.0625 C8.25675781 7.70285156 7.20101562 7.34320312 6.11328125 6.97265625 C3.40949417 6.12793482 0.78613158 5.49106215 -2 5 C-1.01 4.34 -0.02 3.68 1 3 C0.67 2.01 0.34 1.02 0 0 Z " fill="#5F679A" transform="translate(59,1)"/>
<path d="M0 0 C1.98 0 3.96 0 6 0 C6.83790789 1.78953185 7.67019396 3.58169695 8.5 5.375 C8.9640625 6.37273437 9.428125 7.37046875 9.90625 8.3984375 C11 11 11 11 11 13 C10.01 13 9.02 13 8 13 C7.67 13.66 7.34 14.32 7 15 C4.69 10.05 2.38 5.1 0 0 Z " fill="#457DA8" transform="translate(12,108)"/>
<path d="M0 0 C0 2.97 0 5.94 0 9 C-2.31 9.33 -4.62 9.66 -7 10 C-7.33 9.01 -7.66 8.02 -8 7 C-9.49985609 5.33289654 -9.49985609 5.33289654 -11 4 C-9.73308493 3.32591692 -8.46129251 2.66099503 -7.1875 2 C-6.47980469 1.62875 -5.77210937 1.2575 -5.04296875 0.875 C-3 0 -3 0 0 0 Z " fill="#F4F7F9" transform="translate(65,65)"/>
<path d="M0 0 C0.33 0.66 0.66 1.32 1 2 C1.66 2.165 2.32 2.33 3 2.5 C3.66 2.665 4.32 2.83 5 3 C5.33 3.66 5.66 4.32 6 5 C9.3 5 12.6 5 16 5 C16 5.66 16 6.32 16 7 C8.41 7 0.82 7 -7 7 C-7 5.35 -7 3.7 -7 2 C-11.60742865 3.21044132 -11.60742865 3.21044132 -16 5 C-15.67 3.68 -15.34 2.36 -15 1 C-12.03 1 -9.06 1 -6 1 C-5.67 2.65 -5.34 4.3 -5 6 C-3.35 6 -1.7 6 0 6 C-0.2784375 4.7934375 -0.2784375 4.7934375 -0.5625 3.5625 C-0.706875 2.716875 -0.85125 1.87125 -1 1 C-0.67 0.67 -0.34 0.34 0 0 Z " fill="#D9F5FA" transform="translate(78,122)"/>
<path d="M0 0 C5.28 0 10.56 0 16 0 C16 0.66 16 1.32 16 2 C16.66 2.33 17.32 2.66 18 3 C17 4 17 4 13.18359375 4.09765625 C11.60153318 4.09098089 10.01948841 4.07901875 8.4375 4.0625 C7.63119141 4.05798828 6.82488281 4.05347656 5.99414062 4.04882812 C3.99606244 4.03700518 1.99802217 4.01906914 0 4 C0 2.68 0 1.36 0 0 Z " fill="#495589" transform="translate(43,1)"/>
<path d="M0 0 C6.27 0 12.54 0 19 0 C19 0.66 19 1.32 19 2 C16.36 2 13.72 2 11 2 C11 4.31 11 6.62 11 9 C9.68 9 8.36 9 7 9 C7 6.69 7 4.38 7 2 C4.69 2 2.38 2 0 2 C0 1.34 0 0.68 0 0 Z " fill="#513C76" transform="translate(37,108)"/>
<path d="M0 0 C1.08784335 3.31395986 1.07262544 3.83580335 -0.4375 7.25 C-0.953125 8.1575 -1.46875 9.065 -2 10 C-1.34 10.66 -0.68 11.32 0 12 C-0.31229724 13.33841672 -0.64830932 14.67139075 -1 16 C-0.62092718 18.18703385 -0.62092718 18.18703385 0 20 C-2.91517292 18.92598892 -4.77810176 18.22189824 -7 16 C-6.66393718 11.85999207 -4.96086691 8.76067986 -2.9375 5.1875 C-2.11572266 3.72376953 -2.11572266 3.72376953 -1.27734375 2.23046875 C-0.85582031 1.49441406 -0.43429688 0.75835937 0 0 Z " fill="#39B0C9" transform="translate(24,64)"/>
<path d="M0 0 C1.65 0.33 3.3 0.66 5 1 C4.57312017 2.89825285 4.13300518 4.79353183 3.6875 6.6875 C3.44386719 7.74324219 3.20023438 8.79898438 2.94921875 9.88671875 C1.99929028 13.00232777 0.90358003 15.36239168 -1 18 C-1.66 18 -2.32 18 -3 18 C-6 11.375 -6 11.375 -6 8 C-5.34 8 -4.68 8 -4 8 C-4 9.32 -4 10.64 -4 12 C-3.34 12.33 -2.68 12.66 -2 13 C-2.33 13.66 -2.66 14.32 -3 15 C-2.34 15 -1.68 15 -1 15 C-1.33 13.35 -1.66 11.7 -2 10 C-1.34 10 -0.68 10 0 10 C0 6.7 0 3.4 0 0 Z " fill="#3FA6C2" transform="translate(17,56)"/>
<path d="M0 0 C5.28 0 10.56 0 16 0 C10.85714286 10.71428571 10.85714286 10.71428571 7 15 C6.34 14.01 5.68 13.02 5 12 C5.66 11.34 6.32 10.68 7 10 C7.33 9.01 7.66 8.02 8 7 C8.66 7 9.32 7 10 7 C10.33 5.35 10.66 3.7 11 2 C7.37 2 3.74 2 0 2 C0 1.34 0 0.68 0 0 Z " fill="#50477F" transform="translate(93,20)"/>
<path d="M0 0 C0.99 0 1.98 0 3 0 C3.86366822 1.78710586 4.71568594 3.5798465 5.5625 5.375 C6.27599609 6.87160156 6.27599609 6.87160156 7.00390625 8.3984375 C7.33261719 9.25695312 7.66132812 10.11546875 8 11 C7.67 11.66 7.34 12.32 7 13 C6.34 12.34 5.68 11.68 5 11 C4.01 11 3.02 11 2 11 C1.67 9.35 1.34 7.7 1 6 C0.01 5.67 -0.98 5.34 -2 5 C-1.34 3.35 -0.68 1.7 0 0 Z " fill="#504C86" transform="translate(67,108)"/>
<path d="M0 0 C0.66 0 1.32 0 2 0 C0.35821735 4.77609498 -2.26546702 8.79382904 -5 13 C-11.875 9.25 -11.875 9.25 -13 7 C-11.68 7.33 -10.36 7.66 -9 8 C-8.67 7.01 -8.34 6.02 -8 5 C-5.03 5.495 -5.03 5.495 -2 6 C-2 4.68 -2 3.36 -2 2 C-1.34 2 -0.68 2 0 2 C0 1.34 0 0.68 0 0 Z " fill="#41A8C3" transform="translate(33,76)"/>
<path d="M0 0 C0.66 0.33 1.32 0.66 2 1 C3.83801024 7.73937086 2.22898607 14.24565509 1 21 C0.67 21 0.34 21 0 21 C-0.33 19.02 -0.66 17.04 -1 15 C-1.33 15 -1.66 15 -2 15 C-2.05429959 13.25034642 -2.09292823 11.50020213 -2.125 9.75 C-2.15980469 8.28820312 -2.15980469 8.28820312 -2.1953125 6.796875 C-1.99862781 3.9803502 -1.44568916 2.39050964 0 0 Z " fill="#4E80AA" transform="translate(3,35)"/>
<path d="M0 0 C10.23 0 20.46 0 31 0 C31.495 0.99 31.495 0.99 32 2 C32.66 1.67 33.32 1.34 34 1 C34 1.99 34 2.98 34 4 C34.99 4 35.98 4 37 4 C37 4.66 37 5.32 37 6 C36.39671875 5.79503906 35.7934375 5.59007812 35.171875 5.37890625 C34.37265625 5.10949219 33.5734375 4.84007812 32.75 4.5625 C31.96109375 4.29566406 31.1721875 4.02882813 30.359375 3.75390625 C26.13845758 2.40516939 22.60220482 1.87958059 18.140625 1.90234375 C17.02558594 1.90556641 15.91054688 1.90878906 14.76171875 1.91210938 C13.02341797 1.92467773 13.02341797 1.92467773 11.25 1.9375 C10.07566406 1.94201172 8.90132812 1.94652344 7.69140625 1.95117188 C4.79421928 1.96294906 1.89713546 1.97939674 -1 2 C-0.67 1.34 -0.34 0.68 0 0 Z " fill="#E1E4F4" transform="translate(38,0)"/>
<path d="M0 0 C0.33 0.66 0.66 1.32 1 2 C1.66 2.33 2.32 2.66 3 3 C0.03 8.28 -2.94 13.56 -6 19 C-6.33 18.34 -6.66 17.68 -7 17 C-7.66 16.67 -8.32 16.34 -9 16 C-6.03 10.72 -3.06 5.44 0 0 Z " fill="#D3F4FB" transform="translate(25,56)"/>
<path d="M0 0 C1.27230469 0.00902344 2.54460937 0.01804688 3.85546875 0.02734375 C5.31919922 0.04474609 5.31919922 0.04474609 6.8125 0.0625 C5.0625 4.9375 5.0625 4.9375 2.8125 6.0625 C2.8125 4.7425 2.8125 3.4225 2.8125 2.0625 C1.8225 2.0625 0.8325 2.0625 -0.1875 2.0625 C-0.5175 3.0525 -0.8475 4.0425 -1.1875 5.0625 C-4.1575 4.5675 -4.1575 4.5675 -7.1875 4.0625 C-7.1875 3.4025 -7.1875 2.7425 -7.1875 2.0625 C-8.5075 3.0525 -9.8275 4.0425 -11.1875 5.0625 C-10.875 3.125 -10.875 3.125 -10.1875 1.0625 C-6.62704823 -0.12431726 -3.74941663 -0.03439832 0 0 Z " fill="#62598E" transform="translate(92.1875,1.9375)"/>
<path d="M0 0 C2.97 0 5.94 0 9 0 C8.67 1.32 8.34 2.64 8 4 C5.69 4 3.38 4 1 4 C1 4.66 1 5.32 1 6 C1.99 6.33 2.98 6.66 4 7 C1.36 7.33 -1.28 7.66 -4 8 C-2.68 5.36 -1.36 2.72 0 0 Z " fill="#615285" transform="translate(88,108)"/>
<path d="M0 0 C4.1724106 0.51881113 6.25416821 1.71151274 9.3125 4.5625 C10.00988281 5.20316406 10.70726562 5.84382813 11.42578125 6.50390625 C11.94527344 6.99761719 12.46476562 7.49132812 13 8 C12.01 8.495 12.01 8.495 11 9 C10.34 8.67 9.68 8.34 9 8 C8.67 8.99 8.34 9.98 8 11 C3.48709197 7.66437233 1.31793186 5.66710699 0 0 Z " fill="#44A6C3" transform="translate(13,82)"/>
<path d="M0 0 C3.47478048 2.68505765 4.3514658 5.74849805 5 10 C3.125 13.4375 3.125 13.4375 1 16 C0.34 15.67 -0.32 15.34 -1 15 C-0.814375 13.948125 -0.62875 12.89625 -0.4375 11.8125 C-0.04318951 8.37636577 -0.26763845 6.29562698 -1 3 C-0.67 2.01 -0.34 1.02 0 0 Z " fill="#426EA4" transform="translate(33,26)"/>
<path d="M0 0 C1.32 0.33 2.64 0.66 4 1 C4.39253254 5.44870215 3.15305957 8.14243493 1 12 C-1.475 11.01 -1.475 11.01 -4 10 C-3.43454163 6.04179141 -2.19097652 3.3340947 0 0 Z " fill="#39B3CB" transform="translate(36,81)"/>
<path d="M0 0 C1.58741549 3.17483099 -0.01983839 5.67834122 -1 9 C-1.36950465 11.32787927 -1.71352467 13.66045145 -2 16 C-2.763125 16.12375 -3.52625 16.2475 -4.3125 16.375 C-7.20267136 16.88102792 -7.20267136 16.88102792 -10 19 C-8.40376856 14.60616294 -6.21975667 10.71004193 -3.875 6.6875 C-3.50246094 6.04232422 -3.12992187 5.39714844 -2.74609375 4.73242188 C-1.83367787 3.15324055 -0.91724491 1.57638136 0 0 Z " fill="#4B85AC" transform="translate(81,40)"/>
<path d="M0 0 C2.97 0 5.94 0 9 0 C7.35 3.3 5.7 6.6 4 10 C3.01 9.01 2.02 8.02 1 7 C0.34 6.67 -0.32 6.34 -1 6 C-0.67 4.02 -0.34 2.04 0 0 Z " fill="#56518D" transform="translate(45,8)"/>
<path d="M0 0 C0.7528125 0.01546875 1.505625 0.0309375 2.28125 0.046875 C4.5017766 0.25016265 6.40979663 0.46158996 8.5 1.25 C8.83 2.24 9.16 3.23 9.5 4.25 C7.1739143 4.63063221 4.83944736 4.96269945 2.5 5.25 C2.17 4.92 1.84 4.59 1.5 4.25 C-0.18183948 4.01712992 -1.8712416 3.83735834 -3.5625 3.6875 C-4.94115234 3.56181641 -4.94115234 3.56181641 -6.34765625 3.43359375 C-7.41306641 3.34271484 -7.41306641 3.34271484 -8.5 3.25 C-5.58445969 0.73203337 -3.85618506 -0.13206113 0 0 Z " fill="#F0F0FC" transform="translate(52.5,4.75)"/>
<path d="M0 0 C0.33 0 0.66 0 1 0 C1.1875 2.3125 1.1875 2.3125 1 5 C0.54367188 5.45503906 0.08734375 5.91007812 -0.3828125 6.37890625 C-2.31284563 8.3136013 -3.04658325 10.09960371 -4.0625 12.625 C-5.78115502 16.89057751 -5.78115502 16.89057751 -8 18 C-8.46523063 19.89533342 -8.46523063 19.89533342 -8.625 22.0625 C-8.74875 23.361875 -8.8725 24.66125 -9 26 C-11 23 -11 23 -10.9375 20.3671875 C-9.6687484 15.81025465 -7.4519195 12.14342363 -5 8.125 C-4.5359375 7.34125 -4.071875 6.5575 -3.59375 5.75 C-1.09180819 1.57524826 -1.09180819 1.57524826 0 0 Z " fill="#51ADC5" transform="translate(20,38)"/>
<path d="M0 0 C-3.44407088 3.84925569 -6.0102872 5.66940992 -11 7 C-11.99 7.495 -11.99 7.495 -13 8 C-13.66 6.35 -14.32 4.7 -15 3 C-13.44033782 2.491217 -11.87710759 1.99336531 -10.3125 1.5 C-9.44238281 1.2215625 -8.57226562 0.943125 -7.67578125 0.65625 C-5.00608323 0.00149195 -2.73603316 -0.11831495 0 0 Z " fill="#E5ECF7" transform="translate(48,5)"/>
<path d="M0 0 C-3.94630106 2.78392435 -6.5942869 3.36121867 -11.39453125 3.29296875 C-12.59658203 3.28330078 -13.79863281 3.27363281 -15.03710938 3.26367188 C-16.28298828 3.23853516 -17.52886719 3.21339844 -18.8125 3.1875 C-20.71032227 3.16719727 -20.71032227 3.16719727 -22.64648438 3.14648438 C-25.76475643 3.11118318 -28.88216042 3.06186819 -32 3 C-32.33 2.34 -32.66 1.68 -33 1 C-32.01773438 1.01571045 -32.01773438 1.01571045 -31.015625 1.03173828 C-28.01045668 1.07365359 -25.00535016 1.09943809 -22 1.125 C-20.97003906 1.14175781 -19.94007812 1.15851563 -18.87890625 1.17578125 C-13.96544522 1.20707718 -3.87415534 -1.93707767 0 0 Z " fill="#CEF5F9" transform="translate(70,100)"/>
<path d="M0 0 C3.74761499 7.49522999 4.61543268 13.00840014 2 21 C1.34 20.67 0.68 20.34 0 20 C0 13.4 0 6.8 0 0 Z " fill="#E4F3F7" transform="translate(0,58)"/>
<path d="M0 0 C0.33 0 0.66 0 1 0 C1 3.96 1 7.92 1 12 C-0.98 11.01 -2.96 10.02 -5 9 C-5.66 10.32 -6.32 11.64 -7 13 C-7.33 12.34 -7.66 11.68 -8 11 C-7.67 10.34 -7.34 9.68 -7 9 C-7.66 8.67 -8.32 8.34 -9 8 C-10.03145371 6.69084721 -11.03542166 5.35917857 -12 4 C-11.01 3.67 -10.02 3.34 -9 3 C-8.608125 3.66 -8.21625 4.32 -7.8125 5 C-6.14583333 7.29166667 -6.14583333 7.29166667 -3.3125 7.25 C-2.1678125 7.12625 -2.1678125 7.12625 -1 7 C-0.67 4.69 -0.34 2.38 0 0 Z " fill="#D9EFF8" transform="translate(60,39)"/>
<path d="M0 0 C1.4606285 2.64738916 2 3.89448334 2 7 C0.35 7 -1.3 7 -3 7 C-3.33 5.35 -3.66 3.7 -4 2 C-6.97 2 -9.94 2 -13 2 C-13 1.67 -13 1.34 -13 1 C-8.62426048 0.40667939 -4.42471556 -0.13827236 0 0 Z " fill="#4B9FBB" transform="translate(76,121)"/>
<path d="M0 0 C0.99 0.66 1.98 1.32 3 2 C2.34 2 1.68 2 1 2 C1 2.66 1 3.32 1 4 C1.66 4.33 2.32 4.66 3 5 C0.03 9.95 0.03 9.95 -3 15 C-4.65 14.67 -6.3 14.34 -8 14 C-6.68 13.67 -5.36 13.34 -4 13 C-4.33 12.01 -4.66 11.02 -5 10 C-4.34 10 -3.68 10 -3 10 C-2.86722656 9.36191406 -2.73445313 8.72382812 -2.59765625 8.06640625 C-2.42105469 7.24011719 -2.24445312 6.41382812 -2.0625 5.5625 C-1.88847656 4.73878906 -1.71445312 3.91507812 -1.53515625 3.06640625 C-1 1 -1 1 0 0 Z " fill="#3E9CBC" transform="translate(49,80)"/>
<path d="M0 0 C0.66 0.66 1.32 1.32 2 2 C1.7578125 4.3828125 1.7578125 4.3828125 1.125 7.125 C0.92132813 8.03507812 0.71765625 8.94515625 0.5078125 9.8828125 C0.25644531 10.93082031 0.25644531 10.93082031 0 12 C-0.99 12 -1.98 12 -3 12 C-4.68798827 13.43750191 -4.68798827 13.43750191 -6 15 C-6.66 14.67 -7.32 14.34 -8 14 C-5.36 9.38 -2.72 4.76 0 0 Z " fill="#4F81AA" transform="translate(34,14)"/>
<path d="M0 0 C0.66 0.66 1.32 1.32 2 2 C1.01 3.485 1.01 3.485 0 5 C-2.5 5.3125 -2.5 5.3125 -5 5 C-7 3 -7 3 -9 0 C-5.88135455 -1.55932272 -3.33704665 -0.65549131 0 0 Z " fill="#524384" transform="translate(70,12)"/>
<path d="M0 0 C0.99 1.32 1.98 2.64 3 4 C1.02 6.31 -0.96 8.62 -3 11 C-3.33 10.01 -3.66 9.02 -4 8 C-4.66 7.67 -5.32 7.34 -6 7 C-4.02 4.69 -2.04 2.38 0 0 Z " fill="#43A2BC" transform="translate(88,79)"/>
<path d="M0 0 C5.94 1.485 5.94 1.485 12 3 C12 3.33 12 3.66 12 4 C15.96 4.33 19.92 4.66 24 5 C24 5.33 24 5.66 24 6 C15.38261147 6.30654742 8.06524596 6.39589303 0 3 C0 2.01 0 1.02 0 0 Z " fill="#B7EBF2" transform="translate(34,92)"/>
<path d="M0 0 C0.66 0.99 1.32 1.98 2 3 C1.01 3.495 1.01 3.495 0 4 C-0.65555119 6.52733235 -0.65555119 6.52733235 -1 9 C-1.99 9.33 -2.98 9.66 -4 10 C-5.22520264 13.00847418 -5.22520264 13.00847418 -6 16 C-3.69 16 -1.38 16 1 16 C1 16.33 1 16.66 1 17 C-1.97 17 -4.94 17 -8 17 C-7.41734728 12.57676318 -5.73233789 9.4844136 -3.4375 5.6875 C-2.79683594 4.61886719 -2.15617187 3.55023438 -1.49609375 2.44921875 C-1.00238281 1.64097656 -0.50867187 0.83273438 0 0 Z " fill="#59B5C9" transform="translate(59,78)"/>
<path d="M0 0 C0.66 0 1.32 0 2 0 C2 5.28 2 10.56 2 16 C0.02 15.34 -1.96 14.68 -4 14 C-2.68 13.67 -1.36 13.34 0 13 C0 10.03 0 7.06 0 4 C-0.66 3.67 -1.32 3.34 -2 3 C-1.34 2.01 -0.68 1.02 0 0 Z " fill="#CBEAF4" transform="translate(65,61)"/>
<path d="M0 0 C-2.64 4.62 -5.28 9.24 -8 14 C-8.33 12.68 -8.66 11.36 -9 10 C-8.34 10 -7.68 10 -7 10 C-6.67 6.7 -6.34 3.4 -6 0 C-2 -1 -2 -1 0 0 Z " fill="#544C86" transform="translate(95,10)"/>
<path d="M0 0 C1.32 1.32 2.64 2.64 4 4 C3.67 4.99 3.34 5.98 3 7 C0.69 7 -1.62 7 -4 7 C-3.43628586 3.73045798 -2.50037734 2.17424117 0 0 Z " fill="#2AAEC9" transform="translate(57,87)"/>
<path d="M0 0 C-0.99 1.485 -0.99 1.485 -2 3 C-2.99 3 -3.98 3 -5 3 C-5 4.65 -5 6.3 -5 8 C-6.32 8 -7.64 8 -9 8 C-9.33 7.01 -9.66 6.02 -10 5 C-9.01 4.67 -8.02 4.34 -7 4 C-7 3.01 -7 2.02 -7 1 C-4.53721199 -0.231394 -2.7204945 -0.07159196 0 0 Z " fill="#338BB5" transform="translate(61,52)"/>
<path d="M0 0 C0.99 0.33 1.98 0.66 3 1 C0.36 6.28 -2.28 11.56 -5 17 C-6.07349791 12.70600835 -5.79682816 11.80504787 -4 8 C-3.34 8 -2.68 8 -2 8 C-1.855625 7.4225 -1.71125 6.845 -1.5625 6.25 C-1.04166667 4.16666667 -0.52083333 2.08333333 0 0 Z " fill="#5479A1" transform="translate(49,45)"/>
<path d="M0 0 C2.0625 0.4375 2.0625 0.4375 4 1 C3.01 1.66 2.02 2.32 1 3 C-0.05021103 4.84971696 -0.05021103 4.84971696 -1 7 C-1.98879205 8.67334039 -2.98648336 10.34151823 -4 12 C-4.99 11.67 -5.98 11.34 -7 11 C-6.02262231 9.35310365 -5.0430468 7.70751146 -4.0625 6.0625 C-3.51722656 5.14597656 -2.97195312 4.22945312 -2.41015625 3.28515625 C-1 1 -1 1 0 0 Z " fill="#536798" transform="translate(92,22)"/>
<path d="M0 0 C0.66 0 1.32 0 2 0 C2.33 3.63 2.66 7.26 3 11 C2.01 11 1.02 11 0 11 C-2.21538462 5.70769231 -2.21538462 5.70769231 -1.125 2.125 C-0.75375 1.42375 -0.3825 0.7225 0 0 Z " fill="#3F93B5" transform="translate(4,60)"/>
<path d="M0 0 C-0.7425 0.70125 -1.485 1.4025 -2.25 2.125 C-4.97817223 4.97718006 -6.91302954 7.6763063 -9 11 C-9.33 10.01 -9.66 9.02 -10 8 C-9.67 7.34 -9.34 6.68 -9 6 C-9.39938767 3.90178785 -9.39938767 3.90178785 -10 2 C-6.49223216 0.39644899 -3.85645121 -0.22036864 0 0 Z " fill="#EAEEF9" transform="translate(85,2)"/>
<path d="M0 0 C0.66 1.32 1.32 2.64 2 4 C0.02 6.97 -1.96 9.94 -4 13 C-5.53445094 9.93109813 -4.54984289 7.29905734 -4 4 C-3.34 4 -2.68 4 -2 4 C-1.34 2.68 -0.68 1.36 0 0 Z " fill="#4982AC" transform="translate(79,66)"/>
<path d="M0 0 C0.99 0.33 1.98 0.66 3 1 C3.99 1 4.98 1 6 1 C6.66 1.33 7.32 1.66 8 2 C8 2.66 8 3.32 8 4 C7.01 4 6.02 4 5 4 C5 4.99 5 5.98 5 7 C3.35 7 1.7 7 0 7 C0 4.69 0 2.38 0 0 Z " fill="#4165A0" transform="translate(48,33)"/>
<path d="M0 0 C1.5625 1.625 1.5625 1.625 3 4 C2.6875 7.25 2.6875 7.25 2 10 C0.35 9.67 -1.3 9.34 -3 9 C-2.01 6.03 -1.02 3.06 0 0 Z " fill="#2DA4C6" transform="translate(17,46)"/>
<path d="M0 0 C0.66 0.99 1.32 1.98 2 3 C1.34 3.66 0.68 4.32 0 5 C-0.45662153 7.19291082 -0.820412 9.40585889 -1.125 11.625 C-1.29257812 12.81351563 -1.46015625 14.00203125 -1.6328125 15.2265625 C-1.75398438 16.14179687 -1.87515625 17.05703125 -2 18 C-2.33 18 -2.66 18 -3 18 C-3.08150744 15.93816367 -3.1394194 13.87538651 -3.1875 11.8125 C-3.22230469 10.66394531 -3.25710937 9.51539063 -3.29296875 8.33203125 C-2.97622579 4.72960801 -2.08533398 2.90633161 0 0 Z " fill="#4E7DA3" transform="translate(64,33)"/>
<path d="M0 0 C5.75 -0.125 5.75 -0.125 8 1 C7.67 2.65 7.34 4.3 7 6 C4.69 5.01 2.38 4.02 0 3 C0 2.01 0 1.02 0 0 Z " fill="#526090" transform="translate(67,5)"/>
<path d="M0 0 C1.98 0 3.96 0 6 0 C6.33 1.98 6.66 3.96 7 6 C6.01 6.495 6.01 6.495 5 7 C2.47411298 4.63707344 1.11179163 3.33537489 0 0 Z " fill="#534C81" transform="translate(12,108)"/>
<path d="M0 0 C0.99 0 1.98 0 3 0 C2 3 2 3 0 4 C-2.6723621 4.13415472 -5.32250488 4.04318541 -8 4 C-8.33 3.01 -8.66 2.02 -9 1 C-7.700625 1.020625 -6.40125 1.04125 -5.0625 1.0625 C-3.70834367 1.08399454 -2.35243917 1.07148199 -1 1 C-0.67 0.67 -0.34 0.34 0 0 Z " fill="#48A7BB" transform="translate(92,124)"/>
<path d="M0 0 C0.66 0.66 1.32 1.32 2 2 C-0.31 5.96 -2.62 9.92 -5 14 C-5.33 12.68 -5.66 11.36 -6 10 C-5.34 10 -4.68 10 -4 10 C-4.33 8.68 -4.66 7.36 -5 6 C-4.01 6 -3.02 6 -2 6 C-2 4.68 -2 3.36 -2 2 C-1.34 2 -0.68 2 0 2 C0 1.34 0 0.68 0 0 Z " fill="#4993B5" transform="translate(73,78)"/>
<path d="M0 0 C4.875 1.75 4.875 1.75 6 4 C3.69 4.66 1.38 5.32 -1 6 C-0.67 6.99 -0.34 7.98 0 9 C-1.32 9 -2.64 9 -4 9 C-2.80100302 5.9168649 -1.52299523 2.93720508 0 0 Z " fill="#4F92B0" transform="translate(55,48)"/>
<path d="M0 0 C0.33 0 0.66 0 1 0 C1.46557346 3.18141867 1.50963377 5.25343123 -0.3359375 7.95703125 C-1.84258024 9.6935608 -3.37936464 11.369718 -5 13 C-5.66 12.67 -6.32 12.34 -7 12 C-5.85865673 9.99743426 -4.71181367 7.99800203 -3.5625 6 C-2.92441406 4.88625 -2.28632812 3.7725 -1.62890625 2.625 C-1.09136719 1.75875 -0.55382812 0.8925 0 0 Z " fill="#E9E3F3" transform="translate(108,21)"/>
<path d="M0 0 C0.99 0 1.98 0 3 0 C1.84414715 3.91211733 0.64465038 6.8745041 -2 10 C-3.03023161 6.72199032 -3.17153978 5.38596452 -1.75 2.1875 C-1.1725 1.465625 -0.595 0.74375 0 0 Z " fill="#525785" transform="translate(30,108)"/>
<path d="M0 0 C3.66666667 3.66666667 7.33333333 7.33333333 11 11 C10.01 11.495 10.01 11.495 9 12 C7.72486237 10.92173635 6.45507431 9.83714481 5.1875 8.75 C4.47980469 8.14671875 3.77210937 7.5434375 3.04296875 6.921875 C1.08110329 5.07629602 -0.45669625 3.20054668 -2 1 C-1.34 0.67 -0.68 0.34 0 0 Z " fill="#C5F6FA" transform="translate(16,78)"/>
<path d="M0 0 C2.0625 0.4375 2.0625 0.4375 4 1 C4 2.65 4 4.3 4 6 C2.02 6.99 2.02 6.99 0 8 C-0.38063221 5.6739143 -0.71269945 3.33944736 -1 1 C-0.67 0.67 -0.34 0.34 0 0 Z " fill="#3CA1C0" transform="translate(61,75)"/>
<path d="M0 0 C2.50298434 2.93828597 3.46930939 5.17902761 4 9 C3.01 8.34 2.02 7.68 1 7 C0.01 7 -0.98 7 -2 7 C-2.33 5.68 -2.66 4.36 -3 3 C-2.01 2.67 -1.02 2.34 0 2 C0 1.34 0 0.68 0 0 Z " fill="#5172A1" transform="translate(71,112)"/>
<path d="M0 0 C0.99 0.33 1.98 0.66 3 1 C1.68139111 5.61513112 -0.21355437 9.09897612 -3 13 C-4.33332095 10.3333581 -3.67102033 8.83319697 -3 6 C-2.01 6 -1.02 6 0 6 C0 4.02 0 2.04 0 0 Z " fill="#4A96B5" transform="translate(23,53)"/>
<path d="M0 0 C0.99 0.33 1.98 0.66 3 1 C0.69 4.63 -1.62 8.26 -4 12 C-5 8 -5 8 -4.00390625 5.859375 C-3.52824219 5.16328125 -3.05257812 4.4671875 -2.5625 3.75 C-2.08941406 3.04359375 -1.61632812 2.3371875 -1.12890625 1.609375 C-0.75636719 1.07828125 -0.38382812 0.5471875 0 0 Z " fill="#556192" transform="translate(96,38)"/>
<path d="M0 0 C1.32 0.33 2.64 0.66 4 1 C2.68 3.64 1.36 6.28 0 9 C-1.32 8.34 -2.64 7.68 -4 7 C-2.68 4.69 -1.36 2.38 0 0 Z " fill="#E1E8F6" transform="translate(65,24)"/>
<path d="M0 0 C1.09658936 3.28976808 0.79953138 4.71303767 0 8 C-1.32 8 -2.64 8 -4 8 C-2.25 2.25 -2.25 2.25 0 0 Z M-5 8 C-4.67 8.66 -4.34 9.32 -4 10 C-4.99 10.99 -5.98 11.98 -7 13 C-6.34 11.35 -5.68 9.7 -5 8 Z " fill="#E5E6F4" transform="translate(92,15)"/>
<path d="M0 0 C0.33 0 0.66 0 1 0 C1 3.3 1 6.6 1 10 C-0.65 10.66 -2.3 11.32 -4 12 C-4 10.35 -4 8.7 -4 7 C-3.01 6.67 -2.02 6.34 -1 6 C-0.67 4.02 -0.34 2.04 0 0 Z " fill="#527BA2" transform="translate(48,110)"/>
<path d="M0 0 C5.41538462 -0.36923077 5.41538462 -0.36923077 8.375 1.5 C8.91125 1.995 9.4475 2.49 10 3 C9.67 4.65 9.34 6.3 9 8 C7.68 8.33 6.36 8.66 5 9 C5.66 8.34 6.32 7.68 7 7 C7.16687448 4.41645782 7.16687448 4.41645782 7 2 C4.69 2 2.38 2 0 2 C0 1.34 0 0.68 0 0 Z " fill="#DDF0FB" transform="translate(83,117)"/>
<path d="M0 0 C-0.33 4.29 -0.66 8.58 -1 13 C-1.33 13 -1.66 13 -2 13 C-2.33 11.02 -2.66 9.04 -3 7 C-3.33 7 -3.66 7 -4 7 C-4 5.02 -4 3.04 -4 1 C-2 0 -2 0 0 0 Z " fill="#427DA5" transform="translate(5,43)"/>
<path d="M0 0 C0.98120464 3.05263664 0.98120464 4.94736336 0 8 C-0.66 8 -1.32 8 -2 8 C-2.33 10.97 -2.66 13.94 -3 17 C-3.33 17 -3.66 17 -4 17 C-4.50604984 10.01370081 -4.0333905 5.79799884 0 0 Z " fill="#5F96B5" transform="translate(40,37)"/>
<path d="M0 0 C0.66 0.33 1.32 0.66 2 1 C0.35 3.64 -1.3 6.28 -3 9 C-3.66 8.67 -4.32 8.34 -5 8 C-4.1875 4.5625 -4.1875 4.5625 -3 1 C-2.01 0.67 -1.02 0.34 0 0 Z " fill="#52518A" transform="translate(64,23)"/>
<path d="M0 0 C0.99 0.33 1.98 0.66 3 1 C1.35 3.64 -0.3 6.28 -2 9 C-2.66 8.67 -3.32 8.34 -4 8 C-3.40072174 4.64404172 -2.15377564 2.62198774 0 0 Z " fill="#486FA0" transform="translate(12,21)"/>
<path d="M0 0 C0.33 0 0.66 0 1 0 C1.36923077 7.50769231 1.36923077 7.50769231 -0.5 10 C-0.995 10.33 -1.49 10.66 -2 11 C-2.95465783 8.83032311 -3.14401212 7.43671207 -2.3984375 5.17578125 C-1.64129615 3.4315257 -0.82390802 1.71372869 0 0 Z " fill="#3B91B5" transform="translate(98,62)"/>
<path d="M0 0 C0.99 0.33 1.98 0.66 3 1 C2.42365861 5.75481646 0.44931479 8.97048212 -2 13 C-3.18771723 9.57056481 -2.80226223 7.62215325 -1.5625 4.25 C-1.27503906 3.45078125 -0.98757812 2.6515625 -0.69140625 1.828125 C-0.46324219 1.22484375 -0.23507813 0.6215625 0 0 Z " fill="#546A9D" transform="translate(76,34)"/>
<path d="M0 0 C0 1.65 0 3.3 0 5 C-1.65 5.33 -3.3 5.66 -5 6 C-5.66 4.35 -6.32 2.7 -7 1 C-4.50935112 0.31292445 -2.62113708 0 0 0 Z " fill="#5B6699" transform="translate(43,1)"/>
<path d="M0 0 C1.04449911 3.13349732 0.93423645 3.98968256 0 7 C-0.61875 6.2884375 -0.61875 6.2884375 -1.25 5.5625 C-3.182185 3.83733482 -4.48192275 3.43415125 -7 3 C-7 2.34 -7 1.68 -7 1 C-3.535 0.505 -3.535 0.505 0 0 Z " fill="#E9ECF9" transform="translate(96,111)"/>
<path d="M0 0 C0.625 1.8125 0.625 1.8125 1 4 C0.01 5.485 0.01 5.485 -1 7 C-4.125 7.1875 -4.125 7.1875 -7 7 C-4.66666667 4.66666667 -2.33333333 2.33333333 0 0 Z " fill="#E3F8FB" transform="translate(87,87)"/>
<path d="M0 0 C0.33 0.99 0.66 1.98 1 3 C-0.4375 5.6875 -0.4375 5.6875 -2 8 C-3.32 7.67 -4.64 7.34 -6 7 C-2.25 1.125 -2.25 1.125 0 0 Z " fill="#E9F2FC" transform="translate(63,31)"/>
<path d="M0 0 C0.391875 0.515625 0.78375 1.03125 1.1875 1.5625 C0.5275 1.5625 -0.1325 1.5625 -0.8125 1.5625 C-1.1425 2.5525 -1.4725 3.5425 -1.8125 4.5625 C-2.8025 3.9025 -3.7925 3.2425 -4.8125 2.5625 C-6.46799531 2.17750109 -8.1347433 1.83456865 -9.8125 1.5625 C-3.4109252 -2.70521654 -3.4109252 -2.70521654 0 0 Z " fill="#516C9B" transform="translate(93.8125,115.4375)"/>
<path d="M0 0 C0.33 0.99 0.66 1.98 1 3 C1.66 3.33 2.32 3.66 3 4 C2.34 4 1.68 4 1 4 C1 4.66 1 5.32 1 6 C0.01 6.66 -0.98 7.32 -2 8 C-3.19232613 10.05003955 -3.19232613 10.05003955 -4 12 C-4.66 11.67 -5.32 11.34 -6 11 C-4.02 7.37 -2.04 3.74 0 0 Z " fill="#E5EEF8" transform="translate(93,47)"/>
<path d="M0 0 C6.625 -0.25 6.625 -0.25 10 2 C6.37 2.66 2.74 3.32 -1 4 C-0.67 2.68 -0.34 1.36 0 0 Z " fill="#5A5F90" transform="translate(56,9)"/>
<path d="M0 0 C2.18975773 3.28463659 2.99806563 6.20696275 4 10 C3.01 9.67 2.02 9.34 1 9 C0.67 9.99 0.34 10.98 0 12 C-0.66 10.35 -1.32 8.7 -2 7 C-1.01 7 -0.02 7 1 7 C0.67 4.69 0.34 2.38 0 0 Z " fill="#5099B8" transform="translate(6,64)"/>
<path d="M0 0 C0.66 0.33 1.32 0.66 2 1 C0.75 3.5 0.75 3.5 -1 6 C-2.32 6 -3.64 6 -5 6 C-4.75 4.125 -4.75 4.125 -4 2 C-2.0625 0.6875 -2.0625 0.6875 0 0 Z " fill="#496396" transform="translate(18,14)"/>
<path d="M0 0 C-0.33 1.98 -0.66 3.96 -1 6 C-1.99 6 -2.98 6 -4 6 C-4 5.34 -4 4.68 -4 4 C-4.66 3.67 -5.32 3.34 -6 3 C-3.375 0 -3.375 0 0 0 Z " fill="#4E699E" transform="translate(41,10)"/>
<path d="M0 0 C0 3 0 3 -1.9375 5 C-2.618125 5.66 -3.29875 6.32 -4 7 C-4.33 7.99 -4.66 8.98 -5 10 C-5.66 10 -6.32 10 -7 10 C-5.11164466 3.46338535 -5.11164466 3.46338535 -2 1 C-1.34 0.67 -0.68 0.34 0 0 Z " fill="#E6E7F4" transform="translate(36,108)"/>
<path d="M0 0 C2.97 0.33 5.94 0.66 9 1 C9 1.66 9 2.32 9 3 C5.7 3 2.4 3 -1 3 C-0.67 2.01 -0.34 1.02 0 0 Z " fill="#E9FBFC" transform="translate(46,94)"/>
<path d="M0 0 C0.70125 0.721875 1.4025 1.44375 2.125 2.1875 C4.92770745 4.99823813 7.92262792 7.49516226 11 10 C10.01 10.33 9.02 10.66 8 11 C6.29115995 9.37660195 4.62553283 7.70680947 3 6 C3 5.34 3 4.68 3 4 C2.01 3.67 1.02 3.34 0 3 C0 2.01 0 1.02 0 0 Z " fill="#D3F4F9" transform="translate(9,81)"/>
<path d="M0 0 C0 0.66 0 1.32 0 2 C-0.66 2 -1.32 2 -2 2 C-2 2.66 -2 3.32 -2 4 C-3.32 4 -4.64 4 -6 4 C-6.33 4.99 -6.66 5.98 -7 7 C-7.99 6.34 -8.98 5.68 -10 5 C-8.71186658 4.16121545 -7.41936744 3.32913217 -6.125 2.5 C-5.40570312 2.0359375 -4.68640625 1.571875 -3.9453125 1.09375 C-2 0 -2 0 0 0 Z " fill="#E0EAF3" transform="translate(33,9)"/>
<path d="M0 0 C1.32 0 2.64 0 4 0 C4 0.66 4 1.32 4 2 C5.32 2 6.64 2 8 2 C8 2.66 8 3.32 8 4 C6.25 4.75 6.25 4.75 4 5 C1.75 3.125 1.75 3.125 0 1 C0 0.67 0 0.34 0 0 Z " fill="#38ADCA" transform="translate(25,93)"/>
<path d="M0 0 C0.66 0 1.32 0 2 0 C0.55049545 3.7910119 -1.15172566 7.3874638 -3 11 C-3.33 11 -3.66 11 -4 11 C-4 9.35 -4 7.7 -4 6 C-3.34 6 -2.68 6 -2 6 C-2 4.68 -2 3.36 -2 2 C-1.34 2 -0.68 2 0 2 C0 1.34 0 0.68 0 0 Z " fill="#529FBA" transform="translate(33,76)"/>
<path d="M0 0 C0.99 0.33 1.98 0.66 3 1 C1.90931332 4.77545388 1.0916909 7.47043472 -2 10 C-2 8.35 -2 6.7 -2 5 C-1.34 5 -0.68 5 0 5 C0 3.35 0 1.7 0 0 Z " fill="#5192B2" transform="translate(55,71)"/>
<path d="M0 0 C3.35595828 0.59927826 5.37801226 1.84622436 8 4 C5.69 3.67 3.38 3.34 1 3 C0.01 4.485 0.01 4.485 -1 6 C-1.66 5.67 -2.32 5.34 -3 5 C-2.01 3.35 -1.02 1.7 0 0 Z " fill="#549EB8" transform="translate(29,56)"/>
<path d="M0 0 C-1.62339805 1.70884005 -3.29319053 3.37446717 -5 5 C-5.66 5 -6.32 5 -7 5 C-7 4.01 -7 3.02 -7 2 C-7.66 1.67 -8.32 1.34 -9 1 C-5.92677456 0.08941469 -3.19902639 -0.08886184 0 0 Z " fill="#D2D7EA" transform="translate(48,5)"/>
<path d="M0 0 C0.99 1.32 1.98 2.64 3 4 C2.01 5.98 1.02 7.96 0 10 C-0.33 10 -0.66 10 -1 10 C-1.125 3.375 -1.125 3.375 0 0 Z " fill="#4E85A8" transform="translate(26,115)"/>
<path d="M0 0 C3 3.75 3 3.75 3 6 C1.35 6 -0.3 6 -2 6 C-1.125 1.125 -1.125 1.125 0 0 Z " fill="#BDDBEC" transform="translate(67,115)"/>
<path d="M0 0 C2 2 2 2 2 5 C1.01 5 0.02 5 -1 5 C-1.33 5.66 -1.66 6.32 -2 7 C-2.66 5.35 -3.32 3.7 -4 2 C-3.01 2 -2.02 2 -1 2 C-0.67 1.34 -0.34 0.68 0 0 Z " fill="#546998" transform="translate(19,112)"/>
<path d="M0 0 C0.66 0.66 1.32 1.32 2 2 C1.625 4.125 1.625 4.125 1 6 C-0.65 5.01 -2.3 4.02 -4 3 C-2.68 2.01 -1.36 1.02 0 0 Z " fill="#E2F5FB" transform="translate(58,67)"/>
<path d="M0 0 C0.66 0 1.32 0 2 0 C1.25 5.75 1.25 5.75 -1 8 C-1.625 5.6875 -1.625 5.6875 -2 3 C-1.34 2.01 -0.68 1.02 0 0 Z " fill="#E3F3FC" transform="translate(68,56)"/>
<path d="M0 0 C1.32 1.32 2.64 2.64 4 4 C3.67 4.66 3.34 5.32 3 6 C1.02 6 -0.96 6 -3 6 C-2.01 4.02 -1.02 2.04 0 0 Z " fill="#449CBE" transform="translate(50,57)"/>
<path d="M0 0 C0.66 0 1.32 0 2 0 C2 1.98 2 3.96 2 6 C1.01 6.33 0.02 6.66 -1 7 C-1.04254356 5.00045254 -1.04080783 2.99958364 -1 1 C-0.67 0.67 -0.34 0.34 0 0 Z " fill="#24B3CF" transform="translate(12,55)"/>
<path d="M0 0 C0.66 0 1.32 0 2 0 C1.34 1.98 0.68 3.96 0 6 C-0.66 6 -1.32 6 -2 6 C-2 6.66 -2 7.32 -2 8 C-2.66 7.67 -3.32 7.34 -4 7 C-2.68 4.69 -1.36 2.38 0 0 Z " fill="#5192B5" transform="translate(25,30)"/>
<path d="M0 0 C0.99 0.33 1.98 0.66 3 1 C2.34 2.65 1.68 4.3 1 6 C-0.32 5.67 -1.64 5.34 -3 5 C-2.01 3.35 -1.02 1.7 0 0 Z " fill="#E3E6F5" transform="translate(53,9)"/>
<path d="M0 0 C1.98 0.495 1.98 0.495 4 1 C3.34 2.32 2.68 3.64 2 5 C1.01 5 0.02 5 -1 5 C-0.67 3.35 -0.34 1.7 0 0 Z " fill="#4FA7BD" transform="translate(59,123)"/>
<path d="M0 0 C1.32 0.66 2.64 1.32 4 2 C2.68 3.65 1.36 5.3 0 7 C-1.125 2.25 -1.125 2.25 0 0 Z " fill="#4D6B99" transform="translate(64,113)"/>
<path d="M0 0 C2.1385485 2.1385485 2.42655063 3.13275314 3 6 C2.34 6 1.68 6 1 6 C0.67 6.99 0.34 7.98 0 9 C-0.66 7.35 -1.32 5.7 -2 4 C-1.34 4 -0.68 4 0 4 C0 2.68 0 1.36 0 0 Z " fill="#D1F5F9" transform="translate(11,67)"/>
<path d="M0 0 C1.67542976 0.28604898 3.34385343 0.61781233 5 1 C2.61426621 2.89213369 0.92824652 4.02391783 -2 5 C-1.125 1.125 -1.125 1.125 0 0 Z " fill="#5091B2" transform="translate(57,64)"/>
<path d="M0 0 C0.66 0.66 1.32 1.32 2 2 C1.63318342 4.93453261 1.13562754 5.86437246 -1 8 C-1.93065133 5.39417629 -2.14917407 4.35801776 -1.0625 1.75 C-0.711875 1.1725 -0.36125 0.595 0 0 Z " fill="#5178A4" transform="translate(34,14)"/>
<path d="M0 0 C1.98 0 3.96 0 6 0 C5.34 1.32 4.68 2.64 4 4 C3.01 4 2.02 4 1 4 C0.67 2.68 0.34 1.36 0 0 Z " fill="#524680" transform="translate(47,9)"/>
<path d="M0 0 C2.97 0 5.94 0 9 0 C9 0.33 9 0.66 9 1 C7.02 1.33 5.04 1.66 3 2 C2.67 2.99 2.34 3.98 2 5 C1.01 4.01 0.02 3.02 -1 2 C-0.67 1.34 -0.34 0.68 0 0 Z " fill="#686496" transform="translate(45,8)"/>
<path d="M0 0 C0.66 0.99 1.32 1.98 2 3 C0.35 4.98 -1.3 6.96 -3 9 C-3.66 8.67 -4.32 8.34 -5 8 C-3.35 5.36 -1.7 2.72 0 0 Z " fill="#E8E1F3" transform="translate(98,4)"/>
<path d="M0 0 C0.99 0 1.98 0 3 0 C3 1.65 3 3.3 3 5 C1.68 5 0.36 5 -1 5 C-0.67 3.35 -0.34 1.7 0 0 Z " fill="#48588F" transform="translate(45,112)"/>
<path d="M0 0 C0.33 0.66 0.66 1.32 1 2 C3.52733235 2.65555119 3.52733235 2.65555119 6 3 C2.77208445 5.1519437 1.71599191 5.20086443 -2 5 C-1.34 3.35 -0.68 1.7 0 0 Z " fill="#4E598E" transform="translate(86,111)"/>
</svg>
