<?xml version="1.0" encoding="UTF-8"?>
<svg version="1.1" xmlns="http://www.w3.org/2000/svg" width="109" height="129">
<path d="M0 0 C-0.3125 1.9375 -0.3125 1.9375 -1 4 C-4.7607674 5.25358913 -5.91030862 4.5058807 -9.5625 3.125 C-20.85181402 -0.77814818 -31.58258942 -0.91587005 -42.75 3.8125 C-44.17972077 4.51572613 -45.59705469 5.24476963 -47 6 C-47.69996094 6.37125 -48.39992188 6.7425 -49.12109375 7.125 C-58.3821266 12.44703022 -64.2957247 21.43247428 -68.3125 31.1875 C-70.98111051 42.10454302 -70.39681288 51.36474064 -67 62 C-66.505 61.505 -66.505 61.505 -66 61 C-66.42492126 59.70414084 -66.86545882 58.4133956 -67.3125 57.125 C-68.51866174 51.71835892 -66.98581518 48.99828091 -64.1640625 44.3984375 C-63.82793945 43.87475586 -63.49181641 43.35107422 -63.14550781 42.81152344 C-61.81219066 40.70299546 -60.54201298 38.56216033 -59.2734375 36.4140625 C-57.23658442 32.96728645 -55.17613623 29.53664432 -53.09375 26.1171875 C-51.10902535 22.85568899 -49.17302795 19.57400439 -47.28125 16.2578125 C-46.43775634 14.81755818 -45.59401987 13.37744602 -44.75 11.9375 C-44.38680664 11.2772583 -44.02361328 10.6170166 -43.64941406 9.93676758 C-41.10580505 5.67582821 -38.71904893 3.89948994 -33.96191406 2.43725586 C-31.42542045 1.87194226 -29.095308 1.70436217 -26.5 1.8125 C-25.21609375 1.85310547 -25.21609375 1.85310547 -23.90625 1.89453125 C-23.2771875 1.92933594 -22.648125 1.96414062 -22 2 C-22.495 3.175625 -22.495 3.175625 -23 4.375 C-24.11866511 6.84332497 -24.11866511 6.84332497 -24 9 C-22.35 6.69 -20.7 4.38 -19 2 C-8.44191344 3.74259681 -8.44191344 3.74259681 -4 7 C-5.78364319 11.96013135 -8.32932237 16.46469448 -10.875 21.0625 C-11.30941406 21.86494141 -11.74382812 22.66738281 -12.19140625 23.49414062 C-15.6332317 29.72146745 -18.84895612 33.34262256 -25 37 C-25.495 37.99 -25.495 37.99 -26 39 C-25.34 39 -24.68 39 -24 39 C-24.60209165 43.20932615 -26.05484632 46.27878348 -28.1328125 49.97265625 C-29.09574219 51.69452148 -29.09574219 51.69452148 -30.078125 53.45117188 C-30.76033871 54.6549921 -31.44263066 55.85876799 -32.125 57.0625 C-32.78445614 58.23859496 -33.44331534 59.41502484 -34.1015625 60.59179688 C-46.237577 82.237577 -46.237577 82.237577 -48 84 C-47.34 84.33 -46.68 84.66 -46 85 C-45.46375 83.88625 -44.9275 82.7725 -44.375 81.625 C-42.80952476 78.49234383 -41.1248101 75.48509645 -39.30078125 72.49609375 C-36.96363479 68.6303735 -34.69142812 64.73460917 -32.45703125 60.80859375 C-31.85826172 59.76251953 -31.25949219 58.71644531 -30.64257812 57.63867188 C-29.40448642 55.4730024 -28.17288716 53.30361044 -26.94726562 51.13085938 C-26.35236328 50.09638672 -25.75746094 49.06191406 -25.14453125 47.99609375 C-24.34559448 46.59121704 -24.34559448 46.59121704 -23.53051758 45.15795898 C-21.46774184 42.24954062 -19.32109234 42.10703078 -16 41 C-16.12375 39.906875 -16.2475 38.81375 -16.375 37.6875 C-16.3321541 31.53911376 -13.10667598 27.12264521 -10 22 C-9.18110055 20.60041413 -8.36486173 19.19926934 -7.55078125 17.796875 C-5.05909171 13.51588576 -2.55142161 9.24570158 0 5 C0.44585449 4.25282715 0.89170898 3.5056543 1.35107422 2.73583984 C1.79080566 2.01219238 2.23053711 1.28854492 2.68359375 0.54296875 C3.0798999 -0.11292236 3.47620605 -0.76881348 3.88452148 -1.44458008 C5 -3 5 -3 7 -4 C9.71760108 -4.07181821 12.40859388 -4.09299506 15.125 -4.0625 C15.87910156 -4.05798828 16.63320312 -4.05347656 17.41015625 -4.04882812 C19.27347127 -4.03703499 21.13674555 -4.01909942 23 -4 C22.31710658 0.12840112 20.183878 3.49220146 18.125 7.0625 C17.52498169 8.1153418 17.52498169 8.1153418 16.9128418 9.18945312 C15.61434621 11.46300766 14.30806925 13.73194175 13 16 C12.57895996 16.73202637 12.15791992 17.46405273 11.72412109 18.21826172 C9.50696442 22.0709005 7.27754359 25.91589959 5.03515625 29.75390625 C2.78758519 33.61147666 0.60226157 37.49990294 -1.56640625 41.40234375 C-2.79425946 43.58073558 -4.0221239 45.75912107 -5.25 47.9375 C-5.81614014 48.97455078 -6.38228027 50.01160156 -6.96557617 51.08007812 C-10.29145972 56.9320044 -12.7390537 60.33830328 -19 63 C-19 63.66 -19 64.32 -19 65 C-18.01 65.99 -18.01 65.99 -17 67 C-17.32274902 67.58491211 -17.64549805 68.16982422 -17.97802734 68.77246094 C-19.44449633 71.431194 -20.90976002 74.09058944 -22.375 76.75 C-22.88289063 77.67039062 -23.39078125 78.59078125 -23.9140625 79.5390625 C-24.40390625 80.42851563 -24.89375 81.31796875 -25.3984375 82.234375 C-25.84880371 83.05131836 -26.29916992 83.86826172 -26.76318359 84.70996094 C-27.88533222 86.78768579 -28.95767741 88.88131979 -30 91 C-27.69 90.67 -25.38 90.34 -23 90 C-24.32 89.34 -25.64 88.68 -27 88 C-26.52949219 87.21496094 -26.05898438 86.42992188 -25.57421875 85.62109375 C-21.52356391 78.93785511 -21.52356391 78.93785511 -18.375 71.8125 C-17 69 -17 69 -14.4375 68 C-12 68 -12 68 -10 69 C-10.06960937 68.32195312 -10.13921875 67.64390625 -10.2109375 66.9453125 C-10.68129151 58.85970302 -8.52432542 54.53144037 -4 48 C-3.23515293 46.65416334 -2.48307284 45.30090441 -1.75 43.9375 C0 41 0 41 2 40 C2.72132764 38.35625164 3.37961296 36.6844412 4 35 C12.18477919 15.83361368 12.18477919 15.83361368 18.22802734 12.92919922 C23.21915019 11.80840389 27.98510129 12.20973753 33 13 C32.42149145 17.36291861 30.79808527 20.33752982 28.5 24.0625 C25.43927444 28.7227845 25.43927444 28.7227845 24 34 C24.66 34.66 25.32 35.32 26 36 C27.49802317 53.36661746 24.27379957 67.02532581 13.484375 80.95703125 C5.55498805 89.82753231 -7.3083209 95.86854718 -19 97 C-34.88788686 97.74158454 -48.36107809 94.1376033 -60.5625 83.5 C-70.36067096 73.95799037 -75.9913343 61.93788417 -76.29321289 48.14672852 C-76.41317707 31.6843027 -72.01275502 20.25459601 -61.12890625 7.87109375 C-44.5862969 -8.03115653 -19.96253031 -9.93304648 0 0 Z M-27 11 C-27.6290625 12.07636719 -28.258125 13.15273438 -28.90625 14.26171875 C-30.68521601 17.30213974 -32.47457859 20.33618017 -34.26953125 23.3671875 C-35.94112864 26.1906664 -37.58655357 29.02532233 -39.19921875 31.8828125 C-42.76660689 38.03638183 -45.25717995 42.33096706 -52 45 C-51.41412109 45.81597656 -51.41412109 45.81597656 -50.81640625 46.6484375 C-50 49 -50 49 -51.15234375 51.7265625 C-51.74144531 52.68304688 -52.33054687 53.63953125 -52.9375 54.625 C-54.01124346 56.3854673 -55.0454583 58.1721542 -56 60 C-55.67 60.66 -55.34 61.32 -55 62 C-53.85252535 60.37615858 -52.7070709 58.75088944 -51.5625 57.125 C-50.92441406 56.22007813 -50.28632812 55.31515625 -49.62890625 54.3828125 C-48.00481862 52.12261419 -48.00481862 52.12261419 -47 50 C-44.69 50.66 -42.38 51.32 -40 52 C-40.020625 51.07960937 -40.04125 50.15921875 -40.0625 49.2109375 C-39.88554128 38.35009618 -36.80882589 31.99362842 -31 23 C-29.81363577 20.88593377 -28.64490987 18.76180076 -27.5 16.625 C-27.0153125 15.73039062 -26.530625 14.83578125 -26.03125 13.9140625 C-25.6909375 13.28242188 -25.350625 12.65078125 -25 12 C-25.66 11.67 -26.32 11.34 -27 11 Z M20 37 C15.32949983 45.08304052 10.66466675 53.1693271 6.00402832 61.25805664 C5.04587906 62.92040193 4.08692457 64.58228303 3.12792969 66.24414062 C1.45748207 69.14032435 -0.20933122 72.03856592 -1.875 74.9375 C-2.37999023 75.81172607 -2.88498047 76.68595215 -3.40527344 77.58666992 C-3.86708008 78.39209229 -4.32888672 79.19751465 -4.8046875 80.02734375 C-5.40772705 81.07523071 -5.40772705 81.07523071 -6.02294922 82.14428711 C-7.13500794 84.13475724 -7.13500794 84.13475724 -8 87 C-1.95919583 86.17336364 1.48347463 82.86353375 6 79 C6.63550781 78.47277344 7.27101563 77.94554687 7.92578125 77.40234375 C18.92528773 67.47595985 21.09518452 53.97793585 21.8515625 40 C21.90054688 39.01 21.94953125 38.02 22 37 C21.34 37 20.68 37 20 37 Z M-57 62 C-57.33 63.32 -57.66 64.64 -58 66 C-57.34 65.67 -56.68 65.34 -56 65 C-56.33 64.01 -56.66 63.02 -57 62 Z M-66 64 C-64.66511872 67.59391114 -63.03977277 70.75490696 -61 74 C-60.34 72.68 -59.68 71.36 -59 70 C-59.61875 69.7525 -60.2375 69.505 -60.875 69.25 C-63.35068687 67.79371361 -63.95125002 66.62187494 -65 64 C-65.33 64 -65.66 64 -66 64 Z M-59 66 C-59.33 66.66 -59.66 67.32 -60 68 C-59.34 68 -58.68 68 -58 68 C-58.33 67.34 -58.66 66.68 -59 66 Z M-45 86 C-43.02 86.99 -43.02 86.99 -41 88 C-41.33 87.34 -41.66 86.68 -42 86 C-42.99 86 -43.98 86 -45 86 Z M-39 88 C-38.67 88.66 -38.34 89.32 -38 90 C-37.34 89.67 -36.68 89.34 -36 89 C-36.99 88.67 -37.98 88.34 -39 88 Z M-14 88 C-14.66 88.66 -15.32 89.32 -16 90 C-14.02 89.67 -12.04 89.34 -10 89 C-11.89179203 88.3185177 -11.89179203 88.3185177 -14 88 Z " fill="#3494B6" transform="translate(76,6)"/>
<path d="M0 0 C0.75410156 0.00451172 1.50820312 0.00902344 2.28515625 0.01367188 C4.14847127 0.02546501 6.01174555 0.04340058 7.875 0.0625 C7.19210658 4.19090112 5.058878 7.55470146 3 11.125 C2.59998779 11.82689453 2.19997559 12.52878906 1.7878418 13.25195312 C0.48934621 15.52550766 -0.81693075 17.79444175 -2.125 20.0625 C-2.54604004 20.79452637 -2.96708008 21.52655273 -3.40087891 22.28076172 C-5.15279978 25.32498424 -6.90595145 28.36816093 -8.68066406 31.39916992 C-11.39697008 36.04038405 -14.03922739 40.71215099 -16.62109375 45.4296875 C-17.22348877 46.50992188 -17.82588379 47.59015625 -18.4465332 48.703125 C-19.62131223 50.80999824 -20.77839214 52.92686953 -21.91479492 55.0546875 C-25.62646537 61.64056256 -29.07369932 65.19373504 -36.125 68.0625 C-35.465 66.4125 -34.805 64.7625 -34.125 63.0625 C-33.135 63.0625 -32.145 63.0625 -31.125 63.0625 C-31.06441406 62.39863281 -31.00382812 61.73476563 -30.94140625 61.05078125 C-30.10918278 52.28042619 -30.10918278 52.28042619 -29.125 48.0625 C-29.785 48.0625 -30.445 48.0625 -31.125 48.0625 C-31.455 48.7225 -31.785 49.3825 -32.125 50.0625 C-34.105 50.0625 -36.085 50.0625 -38.125 50.0625 C-37.465 48.7425 -36.805 47.4225 -36.125 46.0625 C-34.475 46.0625 -32.825 46.0625 -31.125 46.0625 C-31.24875 44.804375 -31.3725 43.54625 -31.5 42.25 C-31.45995873 35.79334443 -28.42185883 31.44021647 -25.125 26.0625 C-24.30534413 24.66466084 -23.48916059 23.26478192 -22.67578125 21.86328125 C-20.18492622 17.5804643 -17.67701964 13.30919673 -15.125 9.0625 C-14.45621826 7.94174072 -14.45621826 7.94174072 -13.77392578 6.79833984 C-13.33419434 6.07469238 -12.89446289 5.35104492 -12.44140625 4.60546875 C-12.0451001 3.94957764 -11.64879395 3.29368652 -11.24047852 2.61791992 C-8.55809907 -1.122382 -4.1360534 -0.04643238 0 0 Z " fill="#445F9A" transform="translate(91.125,1.9375)"/>
<path d="M0 0 C-0.58094343 4.28642041 -2.11843421 7.20927076 -4.375 10.875 C-6.96005448 15.17457727 -9.19384247 19.32523934 -11 24 C-11.66 24 -12.32 24 -13 24 C-13.25885986 24.69730225 -13.51771973 25.39460449 -13.78442383 26.11303711 C-15.1253239 29.2976411 -16.72723199 32.19546045 -18.44921875 35.19140625 C-18.78492386 35.77736069 -19.12062897 36.36331512 -19.46650696 36.96702576 C-20.5371415 38.83394271 -21.61228005 40.69822099 -22.6875 42.5625 C-23.39026238 43.78694388 -24.09273869 45.011552 -24.79492188 46.23632812 C-29.16141204 53.84479711 -33.5695845 61.42857269 -38 69 C-39.01498047 65.84679401 -39.13609061 65.28455309 -37.625 62.125 C-37.08875 61.09375 -36.5525 60.0625 -36 59 C-35.29241674 55.7633037 -35.29241674 55.7633037 -35 53 C-35.66 53 -36.32 53 -37 53 C-38.7578125 47.04296875 -38.7578125 47.04296875 -39 45 C-38.34 44.01 -37.68 43.02 -37 42 C-39.01772471 43.67336636 -39.91568943 44.58143159 -40.44140625 47.19140625 C-40.50134766 48.36509766 -40.50134766 48.36509766 -40.5625 49.5625 C-40.79166667 53.79166667 -40.79166667 53.79166667 -43 56 C-43.91341945 47.10261799 -42.01484197 42.23956354 -37 35 C-36.23515293 33.65416334 -35.48307284 32.30090441 -34.75 30.9375 C-33 28 -33 28 -31 27 C-30.28407508 25.35389134 -29.62511511 23.68269228 -29 22 C-20.13433981 2.41339028 -20.13433981 2.41339028 -13.45703125 -0.59765625 C-8.86926673 -0.88277156 -4.5748538 0 0 0 Z " fill="#3B7FAE" transform="translate(109,19)"/>
<path d="M0 0 C10.55808656 1.74259681 10.55808656 1.74259681 15 5 C13.21635681 9.96013135 10.67067763 14.46469448 8.125 19.0625 C7.69058594 19.86494141 7.25617188 20.66738281 6.80859375 21.49414062 C3.3667683 27.72146745 0.15104388 31.34262256 -6 35 C-6.33 35.66 -6.66 36.32 -7 37 C-6.34 37 -5.68 37 -5 37 C-5.60266785 41.50727647 -7.36599794 44.8587963 -9.5625 48.8125 C-10.0565332 49.7087207 -10.0565332 49.7087207 -10.56054688 50.62304688 C-11.36773267 52.08533998 -12.18304917 53.5431399 -13 55 C-14 52 -14 52 -13.0390625 49.66015625 C-12.57242188 48.80292969 -12.10578125 47.94570313 -11.625 47.0625 C-8.54011002 41.8040912 -8.54011002 41.8040912 -8.5625 36 C-9.14417215 33.34092732 -8.19904109 32.39808217 -7 30 C-6.83275263 26.83304044 -6.83275263 26.83304044 -7 24 C-8.32 24 -9.64 24 -11 24 C-11.99 23.67 -12.98 23.34 -14 23 C-13.51789062 22.18015625 -13.03578125 21.3603125 -12.5390625 20.515625 C-11.90742187 19.43796875 -11.27578125 18.3603125 -10.625 17.25 C-9.99851562 16.18265625 -9.37203125 15.1153125 -8.7265625 14.015625 C-7.75337238 12.31584497 -6.80323965 10.60069224 -5.9375 8.84375 C-4.91204421 6.82702028 -3.70909173 5.0755992 -2.375 3.25 C-1.92898437 2.63640625 -1.48296875 2.0228125 -1.0234375 1.390625 C-0.68570313 0.93171875 -0.34796875 0.4728125 0 0 Z " fill="#465691" transform="translate(57,8)"/>
<path d="M0 0 C-0.3125 1.9375 -0.3125 1.9375 -1 4 C-4.7607674 5.25358913 -5.91030862 4.5058807 -9.5625 3.125 C-20.85181402 -0.77814818 -31.58258942 -0.91587005 -42.75 3.8125 C-44.17972077 4.51572613 -45.59705469 5.24476963 -47 6 C-47.69996094 6.37125 -48.39992188 6.7425 -49.12109375 7.125 C-58.97288061 12.78651835 -65.98994324 23.12453406 -69 34 C-69.48690069 36.94818367 -69.81775872 39.903322 -70.125 42.875 C-70.21136719 43.65875 -70.29773438 44.4425 -70.38671875 45.25 C-70.5970149 47.16603159 -70.79932744 49.0829366 -71 51 C-71.33 51 -71.66 51 -72 51 C-72 45.06 -72 39.12 -72 33 C-72.99 33.66 -73.98 34.32 -75 35 C-72.95043154 22.4976324 -66.5175686 11.76956253 -56.4296875 4.02734375 C-38.95991207 -7.69383036 -18.8632343 -9.38605378 0 0 Z " fill="#40537E" transform="translate(76,6)"/>
<path d="M0 0 C0.89203125 0.00902344 1.7840625 0.01804687 2.703125 0.02734375 C3.37859375 0.03894531 4.0540625 0.05054688 4.75 0.0625 C3.46474267 3.44012344 2.00588161 6.55240959 0.2109375 9.6875 C-0.53047485 10.9861499 -0.53047485 10.9861499 -1.28686523 12.31103516 C-1.81094971 13.21901855 -2.33503418 14.12700195 -2.875 15.0625 C-3.41261963 15.99497559 -3.95023926 16.92745117 -4.50415039 17.88818359 C-5.58288492 19.75334414 -6.6639795 21.61714195 -7.74755859 23.47949219 C-8.67365059 25.07163605 -9.59654932 26.6656484 -10.51416016 28.26269531 C-11.55942099 30.07869491 -12.61972875 31.88467268 -13.6875 33.6875 C-14.26371094 34.66976562 -14.83992188 35.65203125 -15.43359375 36.6640625 C-17.45829711 39.33754178 -19.21062995 40.66883763 -22.25 42.0625 C-22.91 41.7325 -23.57 41.4025 -24.25 41.0625 C-22.93 40.4025 -21.61 39.7425 -20.25 39.0625 C-20.745 37.5775 -20.745 37.5775 -21.25 36.0625 C-20.5384375 35.5675 -20.5384375 35.5675 -19.8125 35.0625 C-17.43956399 32.02514191 -17.24235267 28.85557577 -17.25 25.0625 C-17.83255237 22.6381566 -17.83255237 22.6381566 -19.25 21.0625 C-20.24 20.7325 -21.23 20.4025 -22.25 20.0625 C-22.91 21.3825 -23.57 22.7025 -24.25 24.0625 C-24.25 19.50375451 -21.83459946 16.42345767 -19.5625 12.5625 C-19.12744141 11.79035156 -18.69238281 11.01820312 -18.24414062 10.22265625 C-15.30407034 5.19622497 -12.91969671 2.32666717 -7.265625 0.37890625 C-4.81639951 -0.00556519 -2.47832444 -0.03260953 0 0 Z " fill="#426697" transform="translate(49.25,7.9375)"/>
<path d="M0 0 C-0.58094343 4.28642041 -2.11843421 7.20927076 -4.375 10.875 C-6.96005448 15.17457727 -9.19384247 19.32523934 -11 24 C-11.66 24 -12.32 24 -13 24 C-13.23460938 24.65355469 -13.46921875 25.30710937 -13.7109375 25.98046875 C-15.39755459 29.93124152 -17.49426475 33.58704258 -19.625 37.3125 C-20.04523438 38.05306641 -20.46546875 38.79363281 -20.8984375 39.55664062 C-21.92948495 41.37269011 -22.96436046 43.18656533 -24 45 C-24.66 44.01 -25.32 43.02 -26 42 C-25.47599609 41.02160156 -25.47599609 41.02160156 -24.94140625 40.0234375 C-22.49617571 35.32693238 -20.53400454 31.34004538 -20 26 C-19.67 25.34 -19.34 24.68 -19 24 C-19.66 23.67 -20.32 23.34 -21 23 C-21.72159424 21.35636866 -22.39351421 19.68949614 -23 18 C-24.98 18.99 -24.98 18.99 -27 20 C-24.35932477 13.18367577 -21.763624 6.59998546 -17 1 C-11.30790127 -0.96747155 -5.90711936 0 0 0 Z " fill="#475795" transform="translate(109,19)"/>
<path d="M0 0 C2.64310402 2.64310402 2.31287843 4.66773821 2.38061523 8.27148438 C2.34531631 24.24501513 -1.32378273 37.11480785 -12.5625 49 C-15.4255387 51.70110212 -18.34182982 53.48319773 -22 55 C-22 54.01 -22 53.02 -22 52 C-24.64 52.99 -27.28 53.98 -30 55 C-30.66 54.34 -31.32 53.68 -32 53 C-30.88625 52.525625 -29.7725 52.05125 -28.625 51.5625 C-18.09552925 46.28841341 -10.0432591 37.06162759 -5.8359375 26.15625 C-4.54670925 21.28850969 -4.12591594 16.34822002 -3.77075195 11.33276367 C-3.40732725 6.79559505 -2.78294852 3.77847482 0 0 Z " fill="#4799AF" transform="translate(100,40)"/>
<path d="M0 0 C0.33 0.66 0.66 1.32 1 2 C1.66 2 2.32 2 3 2 C4.25 8.625 4.25 8.625 2 12 C2.165 13.134375 2.33 14.26875 2.5 15.4375 C3.00017981 19.00128114 2.96387008 20.11195577 1 23 C0.34 23 -0.32 23 -1 23 C-1.18175781 23.72445312 -1.36351562 24.44890625 -1.55078125 25.1953125 C-2.92167755 30.46799057 -4.30679941 35.25483705 -7 40 C-7.5534764 37.92446352 -8 36.15634036 -8 34 C-7.01 33.505 -7.01 33.505 -6 33 C-6.33 31.35 -6.66 29.7 -7 28 C-7.66 28 -8.32 28 -9 28 C-9.33 28.99 -9.66 29.98 -10 31 C-10.99 30.67 -11.98 30.34 -13 30 C-13 29.34 -13 28.68 -13 28 C-12.34 28 -11.68 28 -11 28 C-11.06960937 27.04480469 -11.13921875 26.08960937 -11.2109375 25.10546875 C-11.58173132 16.25055924 -11.13155216 9.06259045 -5 2 C-2.29296875 0.70703125 -2.29296875 0.70703125 0 0 Z " fill="#3C7DA8" transform="translate(47,30)"/>
<path d="M0 0 C0.75410156 0.00451172 1.50820312 0.00902344 2.28515625 0.01367188 C4.14847127 0.02546501 6.01174555 0.04340058 7.875 0.0625 C6.94326282 4.37822607 4.87113067 7.89373532 2.6875 11.6875 C2.28474854 12.39519531 1.88199707 13.10289063 1.46704102 13.83203125 C-1.65035531 19.29011563 -4.83999813 24.70343813 -8.125 30.0625 C-10.125 27.0625 -10.125 27.0625 -10.125 25.0625 C-9.135 25.0625 -8.145 25.0625 -7.125 25.0625 C-8.61670266 20.0901578 -10.72957417 15.64404261 -13.125 11.0625 C-14.115 12.0525 -15.105 13.0425 -16.125 14.0625 C-16.125 10.43596766 -15.12110743 9.00826483 -13.25 5.9375 C-12.71632813 5.04804687 -12.18265625 4.15859375 -11.6328125 3.2421875 C-8.67917874 -1.02757322 -4.73335174 -0.0531378 0 0 Z " fill="#494D8D" transform="translate(91.125,1.9375)"/>
<path d="M0 0 C1.32 0.33 2.64 0.66 4 1 C3.01 2.32 2.02 3.64 1 5 C1.99 5 2.98 5 4 5 C3.979375 5.78375 3.95875 6.5675 3.9375 7.375 C3.81315937 9.98114961 3.81315937 9.98114961 5 12 C4.59373098 13.89213403 4.10271265 15.76666849 3.5625 17.625 C3.27503906 18.62789062 2.98757812 19.63078125 2.69140625 20.6640625 C2.46324219 21.43492188 2.23507813 22.20578125 2 23 C1.01 23 0.02 23 -1 23 C-1 24.65 -1 26.3 -1 28 C-1.94875 27.649375 -2.8975 27.29875 -3.875 26.9375 C-6.87060172 25.64973223 -6.87060172 25.64973223 -9 27 C-11.59927102 23.77690394 -12.2313904 21.52788398 -11.875 17.5 C-11.32038535 13.76725647 -10.27761837 11.06983346 -8 8 C-6.68 8.33 -5.36 8.66 -4 9 C-3.896875 8.2575 -3.79375 7.515 -3.6875 6.75 C-2.95746496 3.82985982 -1.93210602 2.26812446 0 0 Z " fill="#2E9FC2" transform="translate(29,59)"/>
<path d="M0 0 C1.32 0.66 2.64 1.32 4 2 C3.67373505 8.32278971 3.38495108 13.55464391 0 19 C-0.99 19 -1.98 19 -3 19 C-2.7525 19.845625 -2.505 20.69125 -2.25 21.5625 C-1.98464834 25.21108526 -2.53407469 27.22059791 -4.4765625 30.3203125 C-7.3567841 33.49594144 -11.15612388 35.21768992 -15 37 C-14.34 35.35 -13.68 33.7 -13 32 C-12.01 32 -11.02 32 -10 32 C-9.93941406 31.33613281 -9.87882812 30.67226563 -9.81640625 29.98828125 C-8.98418278 21.21792619 -8.98418278 21.21792619 -8 17 C-8.66 17 -9.32 17 -10 17 C-10.33 17.66 -10.66 18.32 -11 19 C-12.98 19 -14.96 19 -17 19 C-16.34 17.68 -15.68 16.36 -15 15 C-13.35 15 -11.7 15 -10 15 C-10 14.34 -10 13.68 -10 13 C-9.34 13 -8.68 13 -8 13 C-7.95101562 12.28972656 -7.90203125 11.57945313 -7.8515625 10.84765625 C-7.77679688 9.92855469 -7.70203125 9.00945313 -7.625 8.0625 C-7.55539063 7.14597656 -7.48578125 6.22945312 -7.4140625 5.28515625 C-7.27742188 4.53105469 -7.14078125 3.77695312 -7 3 C-6.34 2.67 -5.68 2.34 -5 2 C-2.875 2.9375 -2.875 2.9375 -1 4 C-0.67 2.68 -0.34 1.36 0 0 Z " fill="#3E73A5" transform="translate(70,33)"/>
<path d="M0 0 C2.97 0.495 2.97 0.495 6 1 C6 1.99 6 2.98 6 4 C5.34 4 4.68 4 4 4 C3.67 4.99 3.34 5.98 3 7 C3.95298777 8.36733028 4.95374591 9.70264493 6 11 C6 11.66 6 12.32 6 13 C5.01 13.66 4.02 14.32 3 15 C2.20201782 17.41607417 2.20201782 17.41607417 1.8125 20.125 C1.65394531 21.03507812 1.49539062 21.94515625 1.33203125 22.8828125 C1.22246094 23.58148438 1.11289062 24.28015625 1 25 C-8.41002278 24.03644647 -8.41002278 24.03644647 -13 23 C-12.56224454 18.51300649 -11.3679461 15.43240637 -9.02734375 11.67578125 C-7.86074938 9.84895059 -7.86074938 9.84895059 -6.6875 7.125 C-5 5 -5 5 -1.3125 4.1875 C-0.219375 4.125625 0.87375 4.06375 2 4 C2 3.34 2 2.68 2 2 C1.34 2 0.68 2 0 2 C0 1.34 0 0.68 0 0 Z " fill="#2DA2C5" transform="translate(44,69)"/>
<path d="M0 0 C-0.3125 1.9375 -0.3125 1.9375 -1 4 C-4.7607674 5.25358913 -5.91030862 4.5058807 -9.5625 3.125 C-19.71759821 -0.38600634 -27.53703048 -0.08687643 -38 2 C-39.99898576 2.3393627 -41.99873455 2.6743503 -44 3 C-44 2.34 -44 1.68 -44 1 C-43.34 0.67 -42.68 0.34 -42 0 C-43.98 0 -45.96 0 -48 0 C-35.34840521 -10.85725803 -13.57926197 -6.75683083 0 0 Z " fill="#2C3662" transform="translate(76,6)"/>
<path d="M0 0 C-0.33 6.27 -0.66 12.54 -1 19 C-0.34 19 0.32 19 1 19 C1.14695312 19.65484375 1.29390625 20.3096875 1.4453125 20.984375 C3.31055405 28.57397854 6.29781023 35.13477431 10 42 C9.01 42 8.02 42 7 42 C7 43.32 7 44.64 7 46 C7.66 46 8.32 46 9 46 C9.66 47.65 10.32 49.3 11 51 C1.7267474 44.37624814 -2.65627896 33.92637932 -5 23 C-5.26450209 19.64903209 -5.27667555 16.29783332 -5.3125 12.9375 C-5.34150391 12.02677734 -5.37050781 11.11605469 -5.40039062 10.17773438 C-5.46433182 3.50325784 -5.46433182 3.50325784 -3.04296875 0.87890625 C-1 0 -1 0 0 0 Z " fill="#3F8BB1" transform="translate(5,38)"/>
<path d="M0 0 C0.7425 0.2475 1.485 0.495 2.25 0.75 C2.4736337 2.16433206 2.67826476 3.58167618 2.875 5 C3.04902344 6.18335938 3.04902344 6.18335938 3.2265625 7.390625 C3.25319395 10.07152459 2.61592084 11.47694089 1.25 13.75 C0.59 13.75 -0.07 13.75 -0.75 13.75 C-0.62625 14.86375 -0.62625 14.86375 -0.5 16 C-0.82253543 19.54788974 -2.17720112 20.41840101 -4.75 22.75 C-4.75 23.41 -4.75 24.07 -4.75 24.75 C-4.09 25.41 -3.43 26.07 -2.75 26.75 C-5.225 31.205 -5.225 31.205 -7.75 35.75 C-10.23288652 30.78422695 -9.28887387 29.87957957 -7.75 24.75 C-7.67989079 23.31405955 -7.65880488 21.87486456 -7.6875 20.4375 C-7.75 16.75 -7.75 16.75 -6.75 14.75 C-10.99822374 15.22202486 -12.94989709 17.71655518 -15.75 20.75 C-14.29261356 16.83237209 -12.46859726 13.30329789 -10.375 9.6875 C-9.78976563 8.66527344 -9.20453125 7.64304687 -8.6015625 6.58984375 C-4.06413056 -0.36946641 -4.06413056 -0.36946641 0 0 Z " fill="#3A85AC" transform="translate(29.75,28.25)"/>
<path d="M0 0 C1.32 0 2.64 0 4 0 C5.17133058 2.45620851 6.33721722 4.91474917 7.5 7.375 C7.83386719 8.07367188 8.16773437 8.77234375 8.51171875 9.4921875 C11 14.7734375 11 14.7734375 11 17 C11.66 17.33 12.32 17.66 13 18 C13 18.99 13 19.98 13 21 C8.25 22.125 8.25 22.125 6 21 C5.67 20.01 5.34 19.02 5 18 C2.69 17.67 0.38 17.34 -2 17 C-2.66 18.32 -3.32 19.64 -4 21 C-5.65 21 -7.3 21 -9 21 C-8.38367054 16.04001528 -6.20164371 12.06328034 -3.9375 7.6875 C-3.37192383 6.57665039 -3.37192383 6.57665039 -2.79492188 5.44335938 C-1.86871843 3.62612478 -0.93509371 1.81267596 0 0 Z M1 9 C0.67 10.32 0.34 11.64 0 13 C0.99 13 1.98 13 3 13 C2.34 11.68 1.68 10.36 1 9 Z " fill="#3D82A2" transform="translate(66,107)"/>
<path d="M0 0 C3.90254467 4.01732539 3.90254467 4.01732539 4.234375 7.36328125 C3.97812208 10.24612662 3.26177746 12.34475338 2.125 15 C1.77695313 15.825 1.42890625 16.65 1.0703125 17.5 C0.54050781 18.7375 0.54050781 18.7375 0 20 C-1.07789774 22.5861928 -1.9656593 24.79886161 -2.4375 27.5625 C-3.07712115 30.33419163 -4.17188118 31.85394747 -6 34 C-6.19294408 29.17639811 -5.75747614 25.50353262 -4 21 C-4.66 21 -5.32 21 -6 21 C-7.4606285 18.35261084 -8 17.10551666 -8 14 C-9.98 14.99 -9.98 14.99 -12 16 C-11.42415568 13.61435923 -10.77772405 11.33317216 -10 9 C-9.34 9 -8.68 9 -8 9 C-7.7525 8.2575 -7.505 7.515 -7.25 6.75 C-5.75805674 3.46772483 -3.93296349 0 0 0 Z " fill="#406EA2" transform="translate(86,37)"/>
<path d="M0 0 C0.89203125 0.00902344 1.7840625 0.01804687 2.703125 0.02734375 C3.37859375 0.03894531 4.0540625 0.05054688 4.75 0.0625 C3.46075644 3.46452433 1.9847924 6.56814554 0.1484375 9.70703125 C-0.34140625 10.54814453 -0.83125 11.38925781 -1.3359375 12.25585938 C-2.09777344 13.55233398 -2.09777344 13.55233398 -2.875 14.875 C-3.390625 15.75865234 -3.90625 16.64230469 -4.4375 17.55273438 C-5.70531114 19.72444789 -6.97622348 21.8942818 -8.25 24.0625 C-9.09751848 20.95713933 -9.25 18.27848041 -9.25 15.0625 C-9.58 14.7325 -9.91 14.4025 -10.25 14.0625 C-10.48529412 8.53308824 -10.48529412 8.53308824 -9.25 6.0625 C-12.79518884 7.46009905 -12.79518884 7.46009905 -16.25 9.0625 C-15.29142625 5.83820648 -14.62236872 4.33687696 -11.875 2.3125 C-7.80554242 0.37466306 -4.49733419 -0.05917545 0 0 Z " fill="#48558F" transform="translate(49.25,7.9375)"/>
<path d="M0 0 C1.98 0 3.96 0 6 0 C6.83848804 1.45537568 7.67063934 2.91440373 8.5 4.375 C8.9640625 5.18710938 9.428125 5.99921875 9.90625 6.8359375 C11 9 11 9 11 11 C11.66 11 12.32 11 13 11 C13.20496094 10.37351562 13.40992188 9.74703125 13.62109375 9.1015625 C13.89050781 8.28429687 14.15992188 7.46703125 14.4375 6.625 C14.70433594 5.81289062 14.97117187 5.00078125 15.24609375 4.1640625 C16 2 16 2 17 0 C18.65 0 20.3 0 22 0 C19.03 6.93 16.06 13.86 13 21 C11.68 21 10.36 21 9 21 C7.49373883 17.87797994 5.99606757 14.75191601 4.5 11.625 C4.07074219 10.73554687 3.64148438 9.84609375 3.19921875 8.9296875 C2.59013672 7.65351562 2.59013672 7.65351562 1.96875 6.3515625 C1.59169922 5.56604004 1.21464844 4.78051758 0.82617188 3.97119141 C0 2 0 2 0 0 Z " fill="#395884" transform="translate(12,108)"/>
<path d="M0 0 C0 1.32 0 2.64 0 4 C-1.72343755 4.84511824 -3.45404053 5.67563354 -5.1875 6.5 C-6.63189453 7.19609375 -6.63189453 7.19609375 -8.10546875 7.90625 C-11.01494802 9.00564837 -12.92974219 9.21210762 -16 9 C-17.31739701 9 -18.63489896 9.01548534 -19.9519043 9.04760742 C-22.53032613 9.11049576 -25.10860482 9.14895424 -27.6875 9.1875 C-29.0168457 9.22520508 -29.0168457 9.22520508 -30.37304688 9.26367188 C-36.08060463 9.32704224 -39.92665925 8.639733 -45 6 C-45.66 5.67 -46.32 5.34 -47 5 C-47 4.34 -47 3.68 -47 3 C-43.33694766 2.25073929 -40.57644848 1.7619986 -37 3 C-37 3.66 -37 4.32 -37 5 C-31.06 5 -25.12 5 -19 5 C-18.67 4.34 -18.34 3.68 -18 3 C-15.6015625 2.65625 -15.6015625 2.65625 -12.625 2.5 C-7.74904701 2.24269377 -4.75589969 0 0 0 Z " fill="#37A1B9" transform="translate(78,92)"/>
<path d="M0 0 C3.63 0 7.26 0 11 0 C9 4 9 4 6.875 4.75 C5.946875 4.87375 5.946875 4.87375 5 5 C5.825 5.495 6.65 5.99 7.5 6.5 C10.11618052 9.11618052 10.4310004 9.53387377 10.625 13 C10.40157294 16.15149752 10.06105493 16.92368133 8 19.5 C3.94084495 21.52957752 1.50969701 21.44357676 -3 21 C-3.66 20.34 -4.32 19.68 -5 19 C-4.01 17.515 -4.01 17.515 -3 16 C0.625 15.8125 0.625 15.8125 4 16 C3.67 14.35 3.34 12.7 3 11 C0.69 10.34 -1.62 9.68 -4 9 C-2.79310745 5.89656201 -1.49403054 2.98806107 0 0 Z " fill="#3D2D61" transform="translate(87,108)"/>
<path d="M0 0 C0.85078125 0.04833984 1.7015625 0.09667969 2.578125 0.14648438 C3.46757813 0.20255859 4.35703125 0.25863281 5.2734375 0.31640625 C6.170625 0.36861328 7.0678125 0.42082031 7.9921875 0.47460938 C10.21127762 0.60444975 12.42993621 0.73941964 14.6484375 0.87890625 C14.6484375 1.53890625 14.6484375 2.19890625 14.6484375 2.87890625 C12.3384375 2.87890625 10.0284375 2.87890625 7.6484375 2.87890625 C7.6484375 8.81890625 7.6484375 14.75890625 7.6484375 20.87890625 C3.6484375 21.87890625 3.6484375 21.87890625 1.6484375 20.87890625 C1.6484375 14.93890625 1.6484375 8.99890625 1.6484375 2.87890625 C-0.6615625 2.87890625 -2.9715625 2.87890625 -5.3515625 2.87890625 C-5.6815625 2.21890625 -6.0115625 1.55890625 -6.3515625 0.87890625 C-3.94721244 -0.32326878 -2.66774881 -0.16006493 0 0 Z " fill="#3F608A" transform="translate(41.3515625,107.12109375)"/>
<path d="M0 0 C-0.57665391 4.7871428 -2.64082996 8.25128824 -5.0625 12.3125 C-5.62807617 13.28026367 -5.62807617 13.28026367 -6.20507812 14.26757812 C-7.13037493 15.84878152 -8.06432681 17.4249146 -9 19 C-9.66 19 -10.32 19 -11 19 C-10.814375 18.4225 -10.62875 17.845 -10.4375 17.25 C-9.95976454 14.79307475 -10.24270636 13.35602466 -11 11 C-11.66 11 -12.32 11 -13 11 C-12.79375 10.401875 -12.5875 9.80375 -12.375 9.1875 C-11.69328085 6.71549154 -11.69328085 6.71549154 -14 4 C-15.32 4.33 -16.64 4.66 -18 5 C-17.67 3.68 -17.34 2.36 -17 1 C-14.9168207 0.83141902 -12.83344956 0.66520745 -10.75 0.5 C-9.58984375 0.4071875 -8.4296875 0.314375 -7.234375 0.21875 C-4.82731342 0.05595356 -2.41256049 0 0 0 Z " fill="#4B4B8C" transform="translate(109,19)"/>
<path d="M0 0 C0.66 0 1.32 0 2 0 C1.814375 0.70125 1.62875 1.4025 1.4375 2.125 C0.94843024 5.33888698 1.33768442 7.83560336 2 11 C2.66 11 3.32 11 4 11 C4.37503829 16.12552327 3.14595604 19.37794084 1 24 C0.67 25.051875 0.34 26.10375 0 27.1875 C-1.03796386 30.10677335 -1.68653415 31.9258582 -4 34 C-7.6875 34.25 -7.6875 34.25 -11 34 C-11 34.66 -11 35.32 -11 36 C-10.34 36.33 -9.68 36.66 -9 37 C-10.65 36.67 -12.3 36.34 -14 36 C-13.01 35.505 -13.01 35.505 -12 35 C-12 34.34 -12 33.68 -12 33 C-9.09399739 31.74335022 -7.20395416 31 -4 31 C-4.04125 30.21625 -4.0825 29.4325 -4.125 28.625 C-4 26 -4 26 -2 24 C-2.31136874 22.32909055 -2.6506447 20.66338202 -3 19 C-2.96425972 16.26724287 -2.86844786 13.59665411 -2.6875 10.875 C-2.65205078 10.15957031 -2.61660156 9.44414063 -2.58007812 8.70703125 C-2.34930967 5.0216246 -2.08934034 3.13401051 0 0 Z " fill="#358FB5" transform="translate(70,61)"/>
<path d="M0 0 C0.99 0 1.98 0 3 0 C5.23973204 5.10161186 4.79588531 7.80138461 3 13 C2.64628502 14.66246041 2.30404678 16.32774271 2 18 C1.34 18 0.68 18 0 18 C0.2475 18.680625 0.495 19.36125 0.75 20.0625 C1.1173664 24.3790552 -0.67348716 26.40448015 -3 30 C0.3 30 3.6 30 7 30 C7 30.33 7 30.66 7 31 C4.87506859 31.02693575 2.75004088 31.04636628 0.625 31.0625 C-0.55835938 31.07410156 -1.74171875 31.08570312 -2.9609375 31.09765625 C-6 31 -6 31 -8 30 C-8 29.34 -8 28.68 -8 28 C-10.31 27.34 -12.62 26.68 -15 26 C-10.99799622 24.39919849 -7.95443764 25.70720308 -4 27 C-3.97421875 26.30132812 -3.9484375 25.60265625 -3.921875 24.8828125 C-3.86515625 23.97273438 -3.8084375 23.06265625 -3.75 22.125 C-3.68039063 20.76761719 -3.68039063 20.76761719 -3.609375 19.3828125 C-3 17 -3 17 -0.953125 15.6796875 C-0.30859375 15.45539063 0.3359375 15.23109375 1 15 C0.34 14.67 -0.32 14.34 -1 14 C-1.73075648 11.6859378 -2.40138258 9.35171131 -3 7 C-1.68 6.67 -0.36 6.34 1 6 C1 5.01 1 4.02 1 3 C0.01 2.67 -0.98 2.34 -2 2 C-1.34 2 -0.68 2 0 2 C0 1.34 0 0.68 0 0 Z " fill="#3097B9" transform="translate(49,67)"/>
<path d="M0 0 C0.99 0 1.98 0 3 0 C2.5853674 4.42274771 0.7071939 7.27342259 -1.74609375 10.83984375 C-4.8604667 16.20510307 -5.49956061 21.82566816 -6.125 27.875 C-6.21136719 28.65875 -6.29773438 29.4425 -6.38671875 30.25 C-6.5970149 32.16603159 -6.79932744 34.0829366 -7 36 C-7.33 36 -7.66 36 -8 36 C-8 30.06 -8 24.12 -8 18 C-8.99 18.66 -9.98 19.32 -11 20 C-9.94957817 14.02918115 -8.7166132 7.93868601 -5 3 C-2.25 2 -2.25 2 0 2 C0 1.34 0 0.68 0 0 Z " fill="#43688D" transform="translate(12,21)"/>
<path d="M0 0 C2.67019776 2.67019776 2.28689787 4.74075115 2.328125 8.37573242 C2.32296875 9.22111572 2.3178125 10.06649902 2.3125 10.9375 C2.31121094 11.79255127 2.30992188 12.64760254 2.30859375 13.52856445 C2.21020821 20.02877438 1.30830719 25.88573393 -1 32 C-2.07174763 28.34811918 -1.76411467 25.73567172 -1 22 C-2.6627026 24.67478244 -3.99983813 26.9995144 -5 30 C-5.66 30 -6.32 30 -7 30 C-6.79503906 29.28457031 -6.59007813 28.56914063 -6.37890625 27.83203125 C-4.56585369 21.12633924 -3.61283041 14.85642247 -3.40625 7.91015625 C-2.94883603 4.63348887 -1.86847549 2.69835689 0 0 Z " fill="#4280A0" transform="translate(100,40)"/>
<path d="M0 0 C0.33 0.66 0.66 1.32 1 2 C1.66 2 2.32 2 3 2 C4.25 8.625 4.25 8.625 2 12 C2.165 13.134375 2.33 14.26875 2.5 15.4375 C3.00017981 19.00128114 2.96387008 20.11195577 1 23 C-0.9375 22.6875 -0.9375 22.6875 -3 22 C-4 19 -4 19 -3 16.25 C-1.81594195 12.40181133 -2.0843334 9.89158307 -3 6 C-3.66 5.67 -4.32 5.34 -5 5 C-4.938125 6.1446875 -4.938125 6.1446875 -4.875 7.3125 C-5 10 -5 10 -7 13 C-7.99 13 -8.98 13 -10 13 C-9.35891863 11.32332564 -8.68528045 9.65910004 -8 8 C-7.566875 6.948125 -7.13375 5.89625 -6.6875 4.8125 C-4.75726516 1.59544193 -3.55388459 0.96050935 0 0 Z " fill="#3F6EA4" transform="translate(47,30)"/>
<path d="M0 0 C0.75410156 0.00451172 1.50820312 0.00902344 2.28515625 0.01367188 C4.14847127 0.02546501 6.01174555 0.04340058 7.875 0.0625 C6.90897156 4.57583987 4.76394083 8.14519262 2.5 12.125 C2.10039063 12.84494141 1.70078125 13.56488281 1.2890625 14.30664062 C0.8971875 15.00080078 0.5053125 15.69496094 0.1015625 16.41015625 C-0.25341309 17.03929932 -0.60838867 17.66844238 -0.97412109 18.31665039 C-2.18240139 20.14957623 -3.52458997 21.56688898 -5.125 23.0625 C-4.795 20.4225 -4.465 17.7825 -4.125 15.0625 C-3.465 15.0625 -2.805 15.0625 -2.125 15.0625 C-2.00125 14.27875 -1.8775 13.495 -1.75 12.6875 C-1.125 10.0625 -1.125 10.0625 0.875 8.0625 C0.545 7.4025 0.215 6.7425 -0.125 6.0625 C-0.785 6.0625 -1.445 6.0625 -2.125 6.0625 C-2.125 5.4025 -2.125 4.7425 -2.125 4.0625 C-2.785 3.7325 -3.445 3.4025 -4.125 3.0625 C-4.785 2.7325 -5.445 2.4025 -6.125 2.0625 C-7.45360925 1.71080932 -8.78658328 1.37479724 -10.125 1.0625 C-6.93675432 -0.53162284 -3.49603338 -0.03924735 0 0 Z " fill="#493E78" transform="translate(91.125,1.9375)"/>
<path d="M0 0 C2.13093906 1.06546953 3.36587557 2.29159719 5 4 C3.73544097 8.94327621 2.16043294 11.94901584 -2 15 C-5.8125 14.8125 -5.8125 14.8125 -9 14 C-9 10.37546731 -8.07530387 8.92079805 -6 6 C-5.01 5.67 -4.02 5.34 -3 5 C-1.30117552 2.50240018 -1.30117552 2.50240018 0 0 Z " fill="#2BA5C7" transform="translate(59,81)"/>
<path d="M0 0 C-0.33 2.31 -0.66 4.62 -1 7 C-1.66 7 -2.32 7 -3 7 C-2.7525 7.9075 -2.505 8.815 -2.25 9.75 C-2 13 -2 13 -3.8125 15.375 C-6 17 -6 17 -8 17 C-8 17.66 -8 18.32 -8 19 C-9.65 19 -11.3 19 -13 19 C-12.48862734 13.75843022 -10.71344747 10.35980885 -8 6 C-7.484375 5.05125 -6.96875 4.1025 -6.4375 3.125 C-4.63423246 0.45930015 -3.19294039 0 0 0 Z " fill="#35AAC0" transform="translate(44,73)"/>
<path d="M0 0 C0.66 0.33 1.32 0.66 2 1 C1.68417969 1.70898438 1.36835937 2.41796875 1.04296875 3.1484375 C-0.02418157 6.06611441 -0.42809697 8.53767875 -0.6875 11.625 C-0.77386719 12.56601562 -0.86023437 13.50703125 -0.94921875 14.4765625 C-1.14362781 17.12786831 -1.14362781 17.12786831 0 20 C-0.33 20.66 -0.66 21.32 -1 22 C-1.66 22 -2.32 22 -3 22 C-3.33 23.65 -3.66 25.3 -4 27 C-4.66 27 -5.32 27 -6 27 C-6.33 28.32 -6.66 29.64 -7 31 C-8.32 31.33 -9.64 31.66 -11 32 C-10.34 31.01 -9.68 30.02 -9 29 C-8.34 29 -7.68 29 -7 29 C-7.33 28.01 -7.66 27.02 -8 26 C-7.525625 25.67 -7.05125 25.34 -6.5625 25 C-4.18956399 21.96264191 -3.99235267 18.79307577 -4 15 C-4.58255237 12.5756566 -4.58255237 12.5756566 -6 11 C-6.99 10.67 -7.98 10.34 -9 10 C-9.66 11.32 -10.32 12.64 -11 14 C-11 10.26582006 -10.31718077 8.9151629 -8 6 C-4.3125 4.6875 -4.3125 4.6875 -1 4 C-0.67 2.68 -0.34 1.36 0 0 Z " fill="#3E74A2" transform="translate(36,18)"/>
<path d="M0 0 C-0.33 6.27 -0.66 12.54 -1 19 C-0.34 19 0.32 19 1 19 C1.33 21.97 1.66 24.94 2 28 C0 26 0 26 -0.5 23.4375 C-0.665 22.633125 -0.83 21.82875 -1 21 C-1.66 20.67 -2.32 20.34 -3 20 C-2.7525 21.0828125 -2.7525 21.0828125 -2.5 22.1875 C-2.02412881 24.86427545 -1.922557 27.28949487 -2 30 C-5.60941389 24.58587916 -5.24499407 19.26955636 -5.3125 12.9375 C-5.34150391 12.02677734 -5.37050781 11.11605469 -5.40039062 10.17773438 C-5.46433182 3.50325784 -5.46433182 3.50325784 -3.04296875 0.87890625 C-1 0 -1 0 0 0 Z " fill="#3C7C9E" transform="translate(5,38)"/>
<path d="M0 0 C1.76255814 5.3123256 0.01980958 9.96350709 -2 15 C-5.74658248 21.31307401 -10.04914587 26.68563076 -16 31 C-14.1204169 26.77093802 -11.33462286 23.42666581 -8.1875 20.0625 C-6.50114713 17.13357133 -7.31415284 15.22348163 -8 12 C-7.67 11.01 -7.34 10.02 -7 9 C-6.01 9 -5.02 9 -4 9 C-3.896875 8.071875 -3.79375 7.14375 -3.6875 6.1875 C-2.9929808 2.96745642 -2.52259061 1.97420135 0 0 Z " fill="#408DA4" transform="translate(99,61)"/>
<path d="M0 0 C0.99 0.33 1.98 0.66 3 1 C2.98839844 1.68707031 2.97679687 2.37414062 2.96484375 3.08203125 C2.95582031 3.98308594 2.94679688 4.88414063 2.9375 5.8125 C2.92589844 6.70582031 2.91429687 7.59914063 2.90234375 8.51953125 C2.88990033 11.13413791 2.88990033 11.13413791 4 14 C2.68 14.33 1.36 14.66 0 15 C0.33 16.32 0.66 17.64 1 19 C0.34 19 -0.32 19 -1 19 C-2.99789139 16.7061247 -3.96867382 14.91175681 -4.07421875 11.83984375 C-3.67969186 7.2060867 -2.82889542 3.81285904 0 0 Z " fill="#28B0C7" transform="translate(21,67)"/>
<path d="M0 0 C0.33 1.32 0.66 2.64 1 4 C-6.03905044 4.93854006 -12.90272572 5.10808032 -20 5 C-20 4.01 -20 3.02 -20 2 C-13.24112575 -0.07965362 -7.04440079 -0.21133202 0 0 Z " fill="#46518E" transform="translate(57,0)"/>
<path d="M0 0 C0.66 0.33 1.32 0.66 2 1 C1.67 1.99 1.34 2.98 1 4 C0.34 4 -0.32 4 -1 4 C-1.23460938 4.65355469 -1.46921875 5.30710937 -1.7109375 5.98046875 C-3.39755459 9.93124152 -5.49426475 13.58704258 -7.625 17.3125 C-8.04523438 18.05306641 -8.46546875 18.79363281 -8.8984375 19.55664062 C-9.92948495 21.37269011 -10.96436046 23.18656533 -12 25 C-12.66 24.01 -13.32 23.02 -14 22 C-13.24163557 20.34838419 -12.46787924 18.70382862 -11.6875 17.0625 C-11.25824219 16.14597656 -10.82898438 15.22945312 -10.38671875 14.28515625 C-9 12 -9 12 -6 11 C-6 9.35 -6 7.7 -6 6 C-5.34 6 -4.68 6 -4 6 C-4 4.68 -4 3.36 -4 2 C-2.125 0.9375 -2.125 0.9375 0 0 Z " fill="#485587" transform="translate(97,39)"/>
<path d="M0 0 C1.98 0.66 3.96 1.32 6 2 C4.68775452 5.93673644 3.08089673 8.22719294 0 11 C0.66 11 1.32 11 2 11 C1.39733215 15.50727647 -0.36599794 18.8587963 -2.5625 22.8125 C-3.0565332 23.7087207 -3.0565332 23.7087207 -3.56054688 24.62304688 C-4.36773267 26.08533998 -5.18304917 27.5431399 -6 29 C-7 26 -7 26 -6.0390625 23.66015625 C-5.57242188 22.80292969 -5.10578125 21.94570313 -4.625 21.0625 C-1.54011002 15.8040912 -1.54011002 15.8040912 -1.5625 10 C-2.1423411 7.34929781 -1.24711598 6.34751244 0 4 C0 2.68 0 1.36 0 0 Z " fill="#446395" transform="translate(50,34)"/>
<path d="M0 0 C1.32 0 2.64 0 4 0 C4.69710731 1.28650706 5.38242876 2.57940665 6.0625 3.875 C6.44535156 4.59429687 6.82820313 5.31359375 7.22265625 6.0546875 C7.47917969 6.69664063 7.73570313 7.33859375 8 8 C7.67 8.66 7.34 9.32 7 10 C6.01 10 5.02 10 4 10 C3.34 10.20625 2.68 10.4125 2 10.625 C0 11 0 11 -3 9 C-2.01 6.03 -1.02 3.06 0 0 Z " fill="#354C7F" transform="translate(66,107)"/>
<path d="M0 0 C-0.57823096 4.06225548 -1.89117737 6.84762346 -4.0625 10.3125 C-4.61035156 11.19550781 -5.15820312 12.07851563 -5.72265625 12.98828125 C-6.14417969 13.65214844 -6.56570312 14.31601562 -7 15 C-8.05078125 13.125 -8.05078125 13.125 -9 11 C-8.1875 9 -8.1875 9 -7 7 C-6.64147627 5.67321832 -6.3043477 4.34024676 -6 3 C-7.4370809 2.94577053 -8.87475462 2.90710277 -10.3125 2.875 C-11.51326172 2.84019531 -11.51326172 2.84019531 -12.73828125 2.8046875 C-15.28388576 2.84182678 -15.28388576 2.84182678 -18 5 C-17.67 3.68 -17.34 2.36 -17 1 C-14.9168207 0.83141902 -12.83344956 0.66520745 -10.75 0.5 C-9.58984375 0.4071875 -8.4296875 0.314375 -7.234375 0.21875 C-4.82731342 0.05595356 -2.41256049 0 0 0 Z " fill="#42386B" transform="translate(109,19)"/>
<path d="M0 0 C0.66 0 1.32 0 2 0 C2.33 2.31 2.66 4.62 3 7 C0.39791402 9.60208598 -1.54439038 10.24088781 -5.125 10.3125 C-9 10 -9 10 -11 8 C-10.34 7.01 -9.68 6.02 -9 5 C-5.375 4.8125 -5.375 4.8125 -2 5 C-1.34 3.35 -0.68 1.7 0 0 Z " fill="#389BB1" transform="translate(93,119)"/>
<path d="M0 0 C1.32 0.33 2.64 0.66 4 1 C4 1.99 4 2.98 4 4 C4.99 4.33 5.98 4.66 7 5 C6.67 5.99 6.34 6.98 6 8 C4.68 8 3.36 8 2 8 C1.34 9.32 0.68 10.64 0 12 C-1.65 12 -3.3 12 -5 12 C-4.42365861 7.24518354 -2.44931479 4.02951788 0 0 Z " fill="#3D7196" transform="translate(62,116)"/>
<path d="M0 0 C0.85078125 0.04833984 1.7015625 0.09667969 2.578125 0.14648438 C3.46757813 0.20255859 4.35703125 0.25863281 5.2734375 0.31640625 C6.170625 0.36861328 7.0678125 0.42082031 7.9921875 0.47460938 C10.21127762 0.60444975 12.42993621 0.73941964 14.6484375 0.87890625 C14.6484375 1.53890625 14.6484375 2.19890625 14.6484375 2.87890625 C12.3384375 2.87890625 10.0284375 2.87890625 7.6484375 2.87890625 C7.6484375 5.51890625 7.6484375 8.15890625 7.6484375 10.87890625 C6.9884375 9.55890625 6.3284375 8.23890625 5.6484375 6.87890625 C4.9884375 6.87890625 4.3284375 6.87890625 3.6484375 6.87890625 C2.9884375 7.53890625 2.3284375 8.19890625 1.6484375 8.87890625 C1.6484375 6.89890625 1.6484375 4.91890625 1.6484375 2.87890625 C-0.6615625 2.87890625 -2.9715625 2.87890625 -5.3515625 2.87890625 C-5.6815625 2.21890625 -6.0115625 1.55890625 -6.3515625 0.87890625 C-3.94721244 -0.32326878 -2.66774881 -0.16006493 0 0 Z " fill="#312C5A" transform="translate(41.3515625,107.12109375)"/>
<path d="M0 0 C2 1 2 1 3.125 3.375 C4 6 4 6 4 9 C4.66 9 5.32 9 6 9 C6.66 6.69 7.32 4.38 8 2 C8.99 2.33 9.98 2.66 11 3 C10.319375 4.051875 9.63875 5.10375 8.9375 6.1875 C7.46361876 8.76160244 6.9761635 9.65834352 7.1875 12.6875 C7.455625 13.450625 7.72375 14.21375 8 15 C8.165 15.680625 8.33 16.36125 8.5 17.0625 C8.665 17.701875 8.83 18.34125 9 19 C9.33333333 20.33333333 9.66666667 21.66666667 10 23 C8.0625 22.25 8.0625 22.25 6 21 C4.96350414 18.60808648 4.80301805 17.50887004 5.75 15.0625 C5.8325 14.381875 5.915 13.70125 6 13 C4.37660195 11.29115995 2.70680947 9.62553283 1 8 C-0.141264 5.10294524 0 3.22847003 0 0 Z " fill="#3D96A8" transform="translate(10,63)"/>
<path d="M0 0 C0.33 0.66 0.66 1.32 1 2 C-0.07983398 4.24658203 -0.07983398 4.24658203 -1.74609375 7.0078125 C-2.33583984 7.99394531 -2.92558594 8.98007812 -3.53320312 9.99609375 C-4.47583008 11.54490234 -4.47583008 11.54490234 -5.4375 13.125 C-6.06205078 14.16527344 -6.68660156 15.20554687 -7.33007812 16.27734375 C-8.87961329 18.85595953 -10.43649945 21.42983616 -12 24 C-12.66 22.68 -13.32 21.36 -14 20 C-13.01 20 -12.02 20 -11 20 C-9.76374569 16.75483243 -9 14.24490029 -9 10.75 C-9 8 -9 8 -7 6 C-5.68 6 -4.36 6 -3 6 C-3 4.35 -3 2.7 -3 1 C-2.01 0.67 -1.02 0.34 0 0 Z " fill="#406598" transform="translate(81,32)"/>
<path d="M0 0 C-0.33 0.33 -0.66 0.66 -1 1 C6.50216736 4.0517291 12.94635715 4.33608711 21 4 C21.33 4.66 21.66 5.32 22 6 C18.97861433 6.08149592 15.95946095 6.14073421 12.9375 6.1875 C12.08994141 6.21263672 11.24238281 6.23777344 10.36914062 6.26367188 C4.75557097 6.32869392 0.99618332 5.579304 -4 3 C-4.66 2.67 -5.32 2.34 -6 2 C-6 1.34 -6 0.68 -6 0 C-3 -1 -3 -1 0 0 Z " fill="#2FADC9" transform="translate(37,95)"/>
<path d="M0 0 C0.66 0.66 1.32 1.32 2 2 C3.2684375 2.2475 3.2684375 2.2475 4.5625 2.5 C5.7690625 2.7475 5.7690625 2.7475 7 3 C7.33 3.66 7.66 4.32 8 5 C7.06553465 7.03144641 6.06775224 9.03533587 5 11 C3.68 11 2.36 11 1 11 C-1.08997373 7.60379269 -1.2632246 4.94836905 -1 1 C-0.67 0.67 -0.34 0.34 0 0 Z " fill="#378FB1" transform="translate(20,118)"/>
<path d="M0 0 C0.89203125 0.01804687 1.7840625 0.03609375 2.703125 0.0546875 C3.71632813 0.08949219 3.71632813 0.08949219 4.75 0.125 C3.26481201 4.16801175 1.32122002 7.73646256 -0.875 11.4375 C-1.50664063 12.50613281 -2.13828125 13.57476562 -2.7890625 14.67578125 C-3.27117188 15.48402344 -3.75328125 16.29226562 -4.25 17.125 C-5.49546405 14.63407189 -5.0267578 13.71419267 -4.25 11.125 C-3.59 11.125 -2.93 11.125 -2.25 11.125 C-1.59 8.155 -0.93 5.185 -0.25 2.125 C-3.22 2.125 -6.19 2.125 -9.25 2.125 C-5.38209997 0.19104999 -4.0999541 -0.10789353 0 0 Z " fill="#3C3768" transform="translate(49.25,7.875)"/>
<path d="M0 0 C1.77988604 0.20299527 3.55068515 0.48813938 5.3125 0.8125 C6.76076172 1.06966797 6.76076172 1.06966797 8.23828125 1.33203125 C10.76895919 1.94411884 12.74209169 2.72892098 15 4 C14.6875 5.9375 14.6875 5.9375 14 8 C13.01 8.33 12.02 8.66 11 9 C10.34 8.67 9.68 8.34 9 8 C9 7.34 9 6.68 9 6 C7.63875 5.5978125 7.63875 5.5978125 6.25 5.1875 C3.28528037 4.10423706 1.3830246 3.01640543 -1 1 C-0.67 0.67 -0.34 0.34 0 0 Z " fill="#3A457B" transform="translate(61,2)"/>
<path d="M0 0 C0.66 0 1.32 0 2 0 C1.37892636 4.78319401 -0.5826286 8.54926223 -2.8125 12.75 C-3.15603516 13.43449219 -3.49957031 14.11898437 -3.85351562 14.82421875 C-6.49784531 19.83504986 -6.49784531 19.83504986 -9.1315918 20.70019531 C-9.7481665 20.79913086 -10.36474121 20.89806641 -11 21 C-10.01 17.535 -10.01 17.535 -9 14 C-8.01 14 -7.02 14 -6 14 C-5.67 11.69 -5.34 9.38 -5 7 C-4.01 7 -3.02 7 -2 7 C-1.34 4.69 -0.68 2.38 0 0 Z " fill="#3D8DA6" transform="translate(37,68)"/>
<path d="M0 0 C1.67542976 0.28604898 3.34385343 0.61781233 5 1 C5.33 1.99 5.66 2.98 6 4 C5.33333333 5.33333333 4.66666667 6.66666667 4 8 C3.83249586 10.66709069 3.83249586 10.66709069 4 13 C3.01 13 2.02 13 1 13 C-1.01951565 9.60721372 -2.05143008 7.68144862 -1.75 3.6875 C-1 1 -1 1 0 0 Z " fill="#29ACCB" transform="translate(13,53)"/>
<path d="M0 0 C2 2 2 2 2.1953125 5.6953125 C2.182009 7.17200108 2.15814835 8.64862358 2.125 10.125 C2.11597656 10.87910156 2.10695313 11.63320313 2.09765625 12.41015625 C2.0740687 14.27357254 2.03819719 16.13682593 2 18 C1.34 17.67 0.68 17.34 0 17 C0 13.7 0 10.4 0 7 C-0.33 7 -0.66 7 -1 7 C-0.690625 8.051875 -0.690625 8.051875 -0.375 9.125 C0.07850357 12.60186072 -0.72459723 14.77398123 -2 18 C-2.33 18 -2.66 18 -3 18 C-3.08150744 15.93816367 -3.1394194 13.87538651 -3.1875 11.8125 C-3.22230469 10.66394531 -3.25710937 9.51539063 -3.29296875 8.33203125 C-2.97622579 4.72960801 -2.08533398 2.90633161 0 0 Z " fill="#3B6685" transform="translate(100,40)"/>
<path d="M0 0 C2.1385485 2.1385485 2.42655063 3.13275314 3 6 C2.01 6.33 1.02 6.66 0 7 C-0.67441131 8.6635479 -1.3400321 10.33066942 -2 12 C-4.125 14.3125 -4.125 14.3125 -6 16 C-6.99 15.67 -7.98 15.34 -9 15 C-8.34 13.68 -7.68 12.36 -7 11 C-6.34 11 -5.68 11 -5 11 C-5 10.34 -5 9.68 -5 9 C-4.34 9 -3.68 9 -3 9 C-2.01 6.03 -1.02 3.06 0 0 Z " fill="#399CBA" transform="translate(90,74)"/>
<path d="M0 0 C0.625 1.8125 0.625 1.8125 1 4 C0.01 5.485 0.01 5.485 -1 7 C-0.73817051 10.22923033 0.11271261 12.20455251 1.6875 15.0625 C3 18 3 18 2.1875 20.375 C1.795625 20.91125 1.40375 21.4475 1 22 C0.54625 20.865625 0.0925 19.73125 -0.375 18.5625 C-1.57095806 14.95278308 -1.57095806 14.95278308 -4 14 C-5.03184431 10.99779973 -5.20793099 9.51289644 -4.00390625 6.54296875 C-3.52824219 5.76566406 -3.05257813 4.98835938 -2.5625 4.1875 C-1.85287109 3.00220703 -1.85287109 3.00220703 -1.12890625 1.79296875 C-0.75636719 1.20128906 -0.38382813 0.60960937 0 0 Z " fill="#3FA5BE" transform="translate(13,49)"/>
<path d="M0 0 C1.98 0 3.96 0 6 0 C6 0.66 6 1.32 6 2 C11.94 2 17.88 2 24 2 C24.33 1.34 24.66 0.68 25 0 C26.98 0 28.96 0 31 0 C30 3 30 3 28.125 4.1875 C26 5 26 5 23 5 C21.49566406 5.06960937 21.49566406 5.06960937 19.9609375 5.140625 C12.31927437 5.37370405 6.63875364 4.93407623 0 1 C0 0.67 0 0.34 0 0 Z " fill="#29A4B8" transform="translate(35,95)"/>
<path d="M0 0 C2.25245881 2.68841859 3.88213958 4.64641875 5 8 C4.01 8 3.02 8 2 8 C2 9.32 2 10.64 2 12 C2.66 12 3.32 12 4 12 C4.66 13.65 5.32 15.3 6 17 C2.02361267 14.1281647 -0.51530859 11.23317796 -3 7 C-3 6.34 -3 5.68 -3 5 C-2.34 5 -1.68 5 -1 5 C-0.67 3.35 -0.34 1.7 0 0 Z " fill="#3E8BA0" transform="translate(10,72)"/>
<path d="M0 0 C10.55808656 1.74259681 10.55808656 1.74259681 15 5 C13.92598892 7.91517292 13.22189824 9.77810176 11 12 C11 9.69 11 7.38 11 5 C8.56612247 3.78306124 6.58161154 3.68040104 3.875 3.4375 C2.96492188 3.35371094 2.05484375 3.26992187 1.1171875 3.18359375 C0.41851562 3.12300781 -0.28015625 3.06242188 -1 3 C-1.66 4.65 -2.32 6.3 -3 8 C-3.66 7.67 -4.32 7.34 -5 7 C-3.35 4.69 -1.7 2.38 0 0 Z " fill="#3F3462" transform="translate(57,8)"/>
<path d="M0 0 C0.99 1.32 1.98 2.64 3 4 C1.6875 5.5 1.6875 5.5 0 7 C-0.99 7 -1.98 7 -3 7 C-3.66 10.3 -4.32 13.6 -5 17 C-5.66 16.67 -6.32 16.34 -7 16 C-7.66131596 10.7094723 -6.04553852 7.84303382 -3.2890625 3.5390625 C-2.65097656 2.77722656 -2.65097656 2.77722656 -2 2 C-1.34 2 -0.68 2 0 2 C0 1.34 0 0.68 0 0 Z " fill="#3E6A94" transform="translate(67,29)"/>
<path d="M0 0 C1.32 0.66 2.64 1.32 4 2 C3.91253716 3.43861294 3.80434652 4.87597508 3.6875 6.3125 C3.62949219 7.11300781 3.57148437 7.91351563 3.51171875 8.73828125 C2.91793306 11.36272334 2.04219706 12.30820672 0 14 C-0.78148557 10.58100063 -1 7.49544059 -1 4 C-1.33 3.34 -1.66 2.68 -2 2 C-1.34 2 -0.68 2 0 2 C0 1.34 0 0.68 0 0 Z " fill="#4C3E7F" transform="translate(65,11)"/>
<path d="M0 0 C0.99773438 0.02320313 1.99546875 0.04640625 3.0234375 0.0703125 C4.52777344 0.09738281 4.52777344 0.09738281 6.0625 0.125 C6.83335938 0.14820313 7.60421875 0.17140625 8.3984375 0.1953125 C7.9004538 3.93019027 7.52351994 6.00768885 5.3984375 9.1953125 C3.3359375 6.8828125 3.3359375 6.8828125 1.3984375 4.1953125 C1.7284375 3.2053125 2.0584375 2.2153125 2.3984375 1.1953125 C0.0884375 1.5253125 -2.2215625 1.8553125 -4.6015625 2.1953125 C-2.6015625 0.1953125 -2.6015625 0.1953125 0 0 Z " fill="#474989" transform="translate(40.6015625,9.8046875)"/>
<path d="M0 0 C1.33453734 4.04900444 0.51356885 6.37881926 -1.03125 10.2265625 C-2 12 -2 12 -4.1875 13.5 C-4.785625 13.665 -5.38375 13.83 -6 14 C-6.33 12.35 -6.66 10.7 -7 9 C-6.01 9 -5.02 9 -4 9 C-3.896875 8.071875 -3.79375 7.14375 -3.6875 6.1875 C-2.9929808 2.96745642 -2.52259061 1.97420135 0 0 Z " fill="#3696B8" transform="translate(99,61)"/>
<path d="M0 0 C1 2 1 2 0.25 4.375 C-1 7 -1 7 -2.5625 8.75 C-4.49143554 11.76920345 -4.49794786 14.44741248 -4.69140625 17.9765625 C-5 20 -5 20 -7 22 C-7.89427909 13.28905923 -6.20985209 8.01381749 -1 1 C-0.67 0.67 -0.34 0.34 0 0 Z " fill="#4A86A1" transform="translate(73,53)"/>
<path d="M0 0 C0.66 0 1.32 0 2 0 C2 0.66 2 1.32 2 2 C2.804375 1.979375 3.60875 1.95875 4.4375 1.9375 C7 2 7 2 8 3 C8.14115161 5.67058851 8.04247107 8.32432238 8 11 C6 7.25 6 7.25 6 5 C5.34 5 4.68 5 4 5 C3.67 5.99 3.34 6.98 3 8 C0.9375 6.25 0.9375 6.25 -1 4 C-0.75 1.75 -0.75 1.75 0 0 Z " fill="#416786" transform="translate(89,114)"/>
<path d="M0 0 C0 0.99 0 1.98 0 3 C1.65 3.33 3.3 3.66 5 4 C1.73454239 5.88391785 -1.28111761 6.49287967 -5 7 C-5 6.34 -5 5.68 -5 5 C-4.34 4.67 -3.68 4.34 -3 4 C-4.98 4 -6.96 4 -9 4 C-6.10130984 1.70103884 -3.84906588 0 0 0 Z " fill="#36406E" transform="translate(37,2)"/>
<path d="M0 0 C4.6875 0.78125 4.6875 0.78125 9.375 1.5625 C10.674375 1.7790625 10.674375 1.7790625 12 2 C12 2.99 12 3.98 12 5 C15.3 5 18.6 5 22 5 C22 5.33 22 5.66 22 6 C19.87506859 6.02693575 17.75004088 6.04636628 15.625 6.0625 C14.44164062 6.07410156 13.25828125 6.08570312 12.0390625 6.09765625 C9 6 9 6 7 5 C7 4.34 7 3.68 7 3 C4.69 2.34 2.38 1.68 0 1 C0 0.67 0 0.34 0 0 Z " fill="#2A93A6" transform="translate(34,92)"/>
<path d="M0 0 C0.66 0 1.32 0 2 0 C2 2.64 2 5.28 2 8 C1.34 8 0.68 8 0 8 C0.33 8.99 0.66 9.98 1 11 C0.67 11.99 0.34 12.98 0 14 C-0.99 13.67 -1.98 13.34 -3 13 C-2.88490339 11.58249437 -2.75746342 10.16598831 -2.625 8.75 C-2.55539063 7.96109375 -2.48578125 7.1721875 -2.4140625 6.359375 C-1.98492887 3.914123 -1.21399362 2.15163097 0 0 Z " fill="#38ADBF" transform="translate(20,68)"/>
<path d="M0 0 C0.99 0 1.98 0 3 0 C4.125 5.625 4.125 5.625 3 9 C2.01 9.33 1.02 9.66 0 10 C-1.125 3.375 -1.125 3.375 0 0 Z " fill="#3592B8" transform="translate(6,68)"/>
<path d="M0 0 C0 0.33 0 0.66 0 1 C-1.65 1.33 -3.3 1.66 -5 2 C-4.01 2.66 -3.02 3.32 -2 4 C-5.3 4 -8.6 4 -12 4 C-12 3.01 -12 2.02 -12 1 C-3.96428571 -1.27678571 -3.96428571 -1.27678571 0 0 Z " fill="#3D4980" transform="translate(49,1)"/>
<path d="M0 0 C1.32 0.66 2.64 1.32 4 2 C2.02 4.97 2.02 4.97 0 8 C-1.65 7.67 -3.3 7.34 -5 7 C-4.1875 5.0625 -4.1875 5.0625 -3 3 C-2.01 2.67 -1.02 2.34 0 2 C0 1.34 0 0.68 0 0 Z " fill="#4B5E91" transform="translate(20,11)"/>
<path d="M0 0 C0.99 0.33 1.98 0.66 3 1 C3 3.97 3 6.94 3 10 C1.68 9.67 0.36 9.34 -1 9 C-0.67 6.03 -0.34 3.06 0 0 Z " fill="#3693B3" transform="translate(45,119)"/>
<path d="M0 0 C1.32 0 2.64 0 4 0 C4.66 1.98 5.32 3.96 6 6 C3.36 6.33 0.72 6.66 -2 7 C-1.34 4.69 -0.68 2.38 0 0 Z " fill="#383465" transform="translate(66,107)"/>
<path d="M0 0 C0.66 0 1.32 0 2 0 C0.92598892 2.91517292 0.22189824 4.77810176 -2 7 C-5.625 7.125 -5.625 7.125 -9 7 C-9 7.66 -9 8.32 -9 9 C-8.34 9.33 -7.68 9.66 -7 10 C-8.65 9.67 -10.3 9.34 -12 9 C-11.34 8.67 -10.68 8.34 -10 8 C-10 7.34 -10 6.68 -10 6 C-7.09399739 4.74335022 -5.20395416 4 -2 4 C-1.34 2.68 -0.68 1.36 0 0 Z " fill="#2F90A5" transform="translate(68,88)"/>
<path d="M0 0 C0.99 0.33 1.98 0.66 3 1 C2.39733215 5.50727647 0.63400206 8.8587963 -1.5625 12.8125 C-2.0565332 13.7087207 -2.0565332 13.7087207 -2.56054688 14.62304688 C-3.36773267 16.08533998 -4.18304917 17.5431399 -5 19 C-6 16 -6 16 -5.0390625 13.66015625 C-4.33910156 12.37431641 -4.33910156 12.37431641 -3.625 11.0625 C-1.63616252 7.37926188 0 4.24409916 0 0 Z " fill="#436587" transform="translate(49,44)"/>
<path d="M0 0 C0.99 0.33 1.98 0.66 3 1 C3 1.66 3 2.32 3 3 C2.21625 3.763125 1.4325 4.52625 0.625 5.3125 C-1.90052521 7.89815676 -2.93407386 9.60841682 -4 13 C-4.99 12.67 -5.98 12.34 -7 12 C-6.02296079 10.1863523 -5.04330895 8.37411183 -4.0625 6.5625 C-3.51722656 5.55316406 -2.97195312 4.54382812 -2.41015625 3.50390625 C-1 1 -1 1 0 0 Z " fill="#4690A5" transform="translate(29,55)"/>
<path d="M0 0 C1.48117801 0.28127421 2.95993249 0.57533732 4.4375 0.875 C5.67306641 1.11863281 5.67306641 1.11863281 6.93359375 1.3671875 C7.61550781 1.57601562 8.29742187 1.78484375 9 2 C9.33 2.66 9.66 3.32 10 4 C8.68 4 7.36 4 6 4 C6 3.34 6 2.68 6 2 C3.66924071 2.95865509 3.66924071 2.95865509 2 6 C0.68 5.67 -0.64 5.34 -2 5 C-1.34 3.35 -0.68 1.7 0 0 Z " fill="#3A4670" transform="translate(85,112)"/>
<path d="M0 0 C1.98 0 3.96 0 6 0 C6.66 1.65 7.32 3.3 8 5 C7.01 4.67 6.02 4.34 5 4 C4.34 5.32 3.68 6.64 3 8 C0 2.25 0 2.25 0 0 Z " fill="#2F275A" transform="translate(12,108)"/>
<path d="M0 0 C0.99 0.66 1.98 1.32 3 2 C0.36 6.95 -2.28 11.9 -5 17 C-5.66 17 -6.32 17 -7 17 C-7 16.01 -7 15.02 -7 14 C-6.34 14 -5.68 14 -5 14 C-4.731875 12.948125 -4.46375 11.89625 -4.1875 10.8125 C-3.12838692 7.41218959 -1.87464985 4.9823975 0 2 C0 1.34 0 0.68 0 0 Z " fill="#45849E" transform="translate(56,71)"/>
<path d="M0 0 C-0.33 1.98 -0.66 3.96 -1 6 C-1.66 6 -2.32 6 -3 6 C-4.32 8.31 -5.64 10.62 -7 13 C-7.66 13 -8.32 13 -9 13 C-8.34206835 11.32986582 -7.67276716 9.6642135 -7 8 C-6.75894531 7.38769531 -6.51789062 6.77539062 -6.26953125 6.14453125 C-3.77371134 0 -3.77371134 0 0 0 Z " fill="#459CB3" transform="translate(63,74)"/>
<path d="M0 0 C0.66 0 1.32 0 2 0 C1.48474397 5.28137429 -0.25477117 8.57221156 -3 13 C-3.66 12.01 -4.32 11.02 -5 10 C-3.35 6.7 -1.7 3.4 0 0 Z " fill="#46628D" transform="translate(88,51)"/>
<path d="M0 0 C0.33 0.66 0.66 1.32 1 2 C-0.43359375 4.8203125 -0.43359375 4.8203125 -2.4375 8.125 C-3.09621094 9.22070312 -3.75492187 10.31640625 -4.43359375 11.4453125 C-4.95050781 12.28835937 -5.46742187 13.13140625 -6 14 C-6.66 13.34 -7.32 12.68 -8 12 C-7.34 10.02 -6.68 8.04 -6 6 C-5.01 6 -4.02 6 -3 6 C-3 4.35 -3 2.7 -3 1 C-2.01 0.67 -1.02 0.34 0 0 Z " fill="#41527F" transform="translate(81,32)"/>
<path d="M0 0 C2.97 0 5.94 0 9 0 C9 0.66 9 1.32 9 2 C8.34 2 7.68 2 7 2 C7 2.99 7 3.98 7 5 C5.35 5 3.7 5 2 5 C1 3 1 3 0 0 Z " fill="#484B8D" transform="translate(56,11)"/>
<path d="M0 0 C1.65 0 3.3 0 5 0 C4.01 2.31 3.02 4.62 2 7 C0.68 7 -0.64 7 -2 7 C-1.125 2.25 -1.125 2.25 0 0 Z " fill="#35385F" transform="translate(29,108)"/>
<path d="M0 0 C0.66 1.32 1.32 2.64 2 4 C2.66 4 3.32 4 4 4 C4.33 5.65 4.66 7.3 5 9 C3.35 8.67 1.7 8.34 0 8 C-0.38063221 5.6739143 -0.71269945 3.33944736 -1 1 C-0.67 0.67 -0.34 0.34 0 0 Z " fill="#3396B8" transform="translate(72,120)"/>
<path d="M0 0 C4.37859255 0.50522222 6.81651224 3.17827222 10 6 C8.375 6.8125 8.375 6.8125 6 7 C2.75 4.6875 2.75 4.6875 0 2 C0 1.34 0 0.68 0 0 Z " fill="#35A6C6" transform="translate(20,89)"/>
<path d="M0 0 C1.8125 0.125 1.8125 0.125 4 1 C5.75 4.0625 5.75 4.0625 7 7 C6.34 7.66 5.68 8.32 5 9 C4.34 7.68 3.68 6.36 3 5 C2.34 5 1.68 5 1 5 C0.67 3.35 0.34 1.7 0 0 Z " fill="#339DBF" transform="translate(11,79)"/>
<path d="M0 0 C1.0625 1.875 1.0625 1.875 2 4 C1.67 4.66 1.34 5.32 1 6 C-0.32796291 6.35412344 -1.66216607 6.68521554 -3 7 C-3.99 7.66 -4.98 8.32 -6 9 C-5.38722388 6.03824877 -4.74627478 4.61941217 -3 2 C-2.01 2 -1.02 2 0 2 C0 1.34 0 0.68 0 0 Z " fill="#48619A" transform="translate(54,18)"/>
<path d="M0 0 C0.66 0.99 1.32 1.98 2 3 C1.01 4.485 1.01 4.485 0 6 C-0.33 6.99 -0.66 7.98 -1 9 C-3.5625 10.6875 -3.5625 10.6875 -6 12 C-4.43358249 7.69235185 -2.31663844 3.93828536 0 0 Z " fill="#3B4972" transform="translate(80,4)"/>
<path d="M0 0 C1.47668858 0.0133035 2.95331108 0.03716415 4.4296875 0.0703125 C5.18378906 0.07933594 5.93789062 0.08835938 6.71484375 0.09765625 C8.57826004 0.1212438 10.44151343 0.15711531 12.3046875 0.1953125 C11.9746875 1.5153125 11.6446875 2.8353125 11.3046875 4.1953125 C10.9746875 3.5353125 10.6446875 2.8753125 10.3046875 2.1953125 C5.0246875 2.1953125 -0.2553125 2.1953125 -5.6953125 2.1953125 C-3.6953125 0.1953125 -3.6953125 0.1953125 0 0 Z " fill="#403762" transform="translate(86.6953125,1.8046875)"/>
<path d="M0 0 C0 2.31 0 4.62 0 7 C-1.65 7 -3.3 7 -5 7 C-4.6875 4.625 -4.6875 4.625 -4 2 C-1 0 -1 0 0 0 Z " fill="#3E91A8" transform="translate(62,121)"/>
<path d="M0 0 C0.66 0.99 1.32 1.98 2 3 C0.54744301 6.82946843 -1.42895561 8.12050295 -5 10 C-3.66511872 6.40608886 -2.03977277 3.24509304 0 0 Z " fill="#408CA9" transform="translate(49,58)"/>
<path d="M0 0 C1.1875 1.6875 1.1875 1.6875 2 4 C0.875 6.75 0.875 6.75 -1 9 C-2.32 9 -3.64 9 -5 9 C-3.50163895 5.88801935 -1.80066242 2.9465385 0 0 Z " fill="#436289" transform="translate(70,22)"/>
<path d="M0 0 C0.33 0.99 0.66 1.98 1 3 C-1.97851562 3.29296875 -1.97851562 3.29296875 -4.95703125 3.5859375 C-7.29988142 3.92665391 -7.29988142 3.92665391 -10 6 C-9.25 3.5625 -9.25 3.5625 -8 1 C-5.20408963 -0.21156116 -3.12576931 0 0 0 Z " fill="#435A8C" transform="translate(43,11)"/>
<path d="M0 0 C0.515625 0.2475 1.03125 0.495 1.5625 0.75 C0.5725 1.08 -0.4175 1.41 -1.4375 1.75 C-1.4375 2.41 -1.4375 3.07 -1.4375 3.75 C-3.4175 4.41 -5.3975 5.07 -7.4375 5.75 C-8.0975 5.09 -8.7575 4.43 -9.4375 3.75 C-3.0375 -0.31153846 -3.0375 -0.31153846 0 0 Z " fill="#465692" transform="translate(33.4375,5.25)"/>
<path d="M0 0 C0.66 0 1.32 0 2 0 C2.33 2.31 2.66 4.62 3 7 C1.02 7.99 1.02 7.99 -1 9 C-0.67 6.03 -0.34 3.06 0 0 Z " fill="#4188A7" transform="translate(93,119)"/>
<path d="M0 0 C2.86724686 0.57344937 3.8614515 0.8614515 6 3 C6.33 3.66 6.66 4.32 7 5 C7.66 5.66 8.32 6.32 9 7 C2.25 6.25 2.25 6.25 0 4 C0.99 3.67 1.98 3.34 3 3 C2.01 2.01 1.02 1.02 0 0 Z " fill="#2F9EB3" transform="translate(26,92)"/>
<path d="M0 0 C1.25 1.5625 1.25 1.5625 2 4 C0.6267004 7.50347454 -1.35009122 10.35009122 -4 13 C-3.40546697 3.40546697 -3.40546697 3.40546697 0 0 Z " fill="#3A8CB4" transform="translate(55,70)"/>
<path d="M0 0 C0.66 1.32 1.32 2.64 2 4 C1.01 4.495 1.01 4.495 0 5 C0.33 5.99 0.66 6.98 1 8 C0.01 8 -0.98 8 -2 8 C-2.33 8.66 -2.66 9.32 -3 10 C-3.66 9.01 -4.32 8.02 -5 7 C-4.34 7 -3.68 7 -3 7 C-2.690625 6.21625 -2.38125 5.4325 -2.0625 4.625 C-1 2 -1 2 0 0 Z " fill="#3C6991" transform="translate(81,39)"/>
<path d="M0 0 C0.66 0 1.32 0 2 0 C2.33 0.99 2.66 1.98 3 3 C1.59554165 5.2636564 -0.1967913 7.0208685 -2 9 C-2.66 8.01 -3.32 7.02 -4 6 C-3.01 6 -2.02 6 -1 6 C-1.309375 5.071875 -1.309375 5.071875 -1.625 4.125 C-1.810625 3.073125 -1.810625 3.073125 -2 2 C-1.34 1.34 -0.68 0.68 0 0 Z " fill="#3F70A6" transform="translate(84,37)"/>
<path d="M0 0 C1.76462683 3.08809695 2 4.23312136 2 8 C1.34 8 0.68 8 0 8 C0 7.34 0 6.68 0 6 C-1.98 6.99 -1.98 6.99 -4 8 C-2.87548273 5.0280615 -1.77706209 2.66559313 0 0 Z " fill="#3C608C" transform="translate(86,31)"/>
<path d="M0 0 C2.31 0.33 4.62 0.66 7 1 C5 3 5 3 1.875 3.125 C0.92625 3.08375 -0.0225 3.0425 -1 3 C-1.66 4.65 -2.32 6.3 -3 8 C-3.66 7.67 -4.32 7.34 -5 7 C-3.35 4.69 -1.7 2.38 0 0 Z " fill="#333760" transform="translate(57,8)"/>
<path d="M0 0 C0.66 0 1.32 0 2 0 C2 0.66 2 1.32 2 2 C2.66 2 3.32 2 4 2 C4 5.3 4 8.6 4 12 C3.67 12 3.34 12 3 12 C3 9.36 3 6.72 3 4 C2.34 4 1.68 4 1 4 C0.34 4.66 -0.32 5.32 -1 6 C-1.042721 4.33388095 -1.04063832 2.66617115 -1 1 C-0.67 0.67 -0.34 0.34 0 0 Z " fill="#3D7495" transform="translate(45,116)"/>
<path d="M0 0 C0.66 0.33 1.32 0.66 2 1 C0.6302836 4.99500618 -1.25722422 7.80009492 -4 11 C-4.56638908 6.18569279 -2.82561627 3.79692186 0 0 Z " fill="#44829F" transform="translate(74,77)"/>
<path d="M0 0 C2.4375 0.375 2.4375 0.375 5 1 C5.33 1.66 5.66 2.32 6 3 C5.06553465 5.03144641 4.06775224 7.03533587 3 9 C2 6 2 6 3 3 C2.01 2.67 1.02 2.34 0 2 C0 1.34 0 0.68 0 0 Z " fill="#367CA2" transform="translate(22,120)"/>
<path d="M0 0 C-0.33 0.66 -0.66 1.32 -1 2 C-1.99 2 -2.98 2 -4 2 C-4.33 2.99 -4.66 3.98 -5 5 C-6.32 5 -7.64 5 -9 5 C-8.6875 3.0625 -8.6875 3.0625 -8 1 C-5.07175348 0.02391783 -3.04386724 -0.08226668 0 0 Z " fill="#32ACC9" transform="translate(71,96)"/>
<path d="M0 0 C0.66 0 1.32 0 2 0 C1.67 1.98 1.34 3.96 1 6 C0.34 6 -0.32 6 -1 6 C-1 6.66 -1 7.32 -1 8 C-1.66 8 -2.32 8 -3 8 C-1.125 1.125 -1.125 1.125 0 0 Z " fill="#28B1C8" transform="translate(56,88)"/>
<path d="M0 0 C0.33 0 0.66 0 1 0 C1 2.31 1 4.62 1 7 C-0.32 7.33 -1.64 7.66 -3 8 C-3 4.41465407 -1.97637955 2.92504174 0 0 Z " fill="#46A4AC" transform="translate(53,87)"/>
<path d="M0 0 C0.66 0 1.32 0 2 0 C2.125 6.75 2.125 6.75 1 9 C0.34 8.67 -0.32 8.34 -1 8 C-1.125 2.25 -1.125 2.25 0 0 Z " fill="#4B7192" transform="translate(61,37)"/>
<path d="M0 0 C0.99 0.33 1.98 0.66 3 1 C2.6875 2.875 2.6875 2.875 2 5 C1.01 5.66 0.02 6.32 -1 7 C-1.625 5.1875 -1.625 5.1875 -2 3 C-1.34 2.01 -0.68 1.02 0 0 Z " fill="#50438F" transform="translate(101,21)"/>
<path d="M0 0 C0.33 0.99 0.66 1.98 1 3 C-0.75 3.75 -0.75 3.75 -3 4 C-5.25 2.0625 -5.25 2.0625 -7 0 C-3.89953913 -1.03348696 -2.94389782 -1.17755913 0 0 Z " fill="#3E4882" transform="translate(57,1)"/>
<path d="M0 0 C0.66 0.33 1.32 0.66 2 1 C2 1.66 2 2.32 2 3 C1.01 3.495 1.01 3.495 0 4 C-0.33 4.99 -0.66 5.98 -1 7 C-3.0625 8.1875 -3.0625 8.1875 -5 9 C-5 8.01 -5 7.02 -5 6 C-4.34 5.67 -3.68 5.34 -3 5 C-1.9590934 3.35857037 -0.95495674 1.69287785 0 0 Z " fill="#37AAC4" transform="translate(59,81)"/>
<path d="M0 0 C0.99 0.33 1.98 0.66 3 1 C3 1.66 3 2.32 3 3 C2.34 3 1.68 3 1 3 C0.67 4.65 0.34 6.3 0 8 C-0.99 6.68 -1.98 5.36 -3 4 C-2.34 3.67 -1.68 3.34 -1 3 C-0.67 2.01 -0.34 1.02 0 0 Z " fill="#3686A9" transform="translate(5,65)"/>
<path d="M0 0 C1.125 1.5625 1.125 1.5625 2 4 C1.125 7.75 1.125 7.75 0 11 C-0.33 11 -0.66 11 -1 11 C-1.02688151 9.35425434 -1.04634123 7.70838587 -1.0625 6.0625 C-1.07410156 5.14597656 -1.08570312 4.22945312 -1.09765625 3.28515625 C-1 1 -1 1 0 0 Z " fill="#3D7293" transform="translate(98,47)"/>
<path d="M0 0 C1.60031344 3.20062687 0.03173691 5.72271806 -1 9 C-1.66 9 -2.32 9 -3 9 C-2.814375 8.4225 -2.62875 7.845 -2.4375 7.25 C-1.95976454 4.79307475 -2.24270636 3.35602466 -3 1 C-2.01 0.67 -1.02 0.34 0 0 Z " fill="#474681" transform="translate(101,29)"/>
<path d="M0 0 C4.8 2.46153846 4.8 2.46153846 5.8125 5.1875 C5.874375 5.785625 5.93625 6.38375 6 7 C5.401875 6.484375 4.80375 5.96875 4.1875 5.4375 C3.465625 4.963125 2.74375 4.48875 2 4 C1.01 4.33 0.02 4.66 -1 5 C-0.67 3.35 -0.34 1.7 0 0 Z " fill="#3A6792" transform="translate(70,115)"/>
<path d="M0 0 C2 1 2 1 3.1875 3.3125 C4.03624754 6.11989571 3.99928333 7.301935 3 10 C0.64551835 7.44931155 0.01672076 6.28982642 -0.1875 2.75 C-0.125625 1.8425 -0.06375 0.935 0 0 Z " fill="#4A9DA8" transform="translate(10,63)"/>
<path d="M0 0 C0.93423645 3.01031744 1.04449911 3.86650268 0 7 C-1.32 6.67 -2.64 6.34 -4 6 C-1.125 1.125 -1.125 1.125 0 0 Z " fill="#3D8CB0" transform="translate(99,61)"/>
<path d="M0 0 C0.99 0.33 1.98 0.66 3 1 C2.46930939 4.82097239 1.50298434 7.06171403 -1 10 C-1.125 3.375 -1.125 3.375 0 0 Z " fill="#437097" transform="translate(81,61)"/>
<path d="M0 0 C0.99 0.495 0.99 0.495 2 1 C2.40729228 3.32156597 2.74438677 5.6568787 3 8 C2.01 8.33 1.02 8.66 0 9 C0 6.03 0 3.06 0 0 Z " fill="#3E8ABC" transform="translate(0,49)"/>
<path d="M0 0 C1.98 0 3.96 0 6 0 C5.34 1.32 4.68 2.64 4 4 C2.02 4 0.04 4 -2 4 C-1.34 2.68 -0.68 1.36 0 0 Z " fill="#437C94" transform="translate(55,48)"/>
<path d="M0 0 C0.8125 1.625 0.8125 1.625 1 4 C-0.46818136 6.24609835 -2.15852858 8.02378677 -4 10 C-4 5.75354935 -2.18249194 3.61475228 0 0 Z " fill="#468AA9" transform="translate(19,39)"/>
<path d="M0 0 C0.66 0 1.32 0 2 0 C0.90931332 3.77545388 0.0916909 6.47043472 -3 9 C-3.33 8.01 -3.66 7.02 -4 6 C-3.67 5.34 -3.34 4.68 -3 4 C-2.34 4 -1.68 4 -1 4 C-0.67 2.68 -0.34 1.36 0 0 Z " fill="#444677" transform="translate(63,25)"/>
<path d="M0 0 C0.66 0 1.32 0 2 0 C2.80967438 2.91482778 3.21845993 4.46113217 2.0625 7.3125 C1.5365625 8.1478125 1.5365625 8.1478125 1 9 C0.67 9 0.34 9 0 9 C0 6.03 0 3.06 0 0 Z " fill="#3883B6" transform="translate(38,46)"/>
<path d="M0 0 C0.66 0.33 1.32 0.66 2 1 C1.67 1.99 1.34 2.98 1 4 C0.34 4 -0.32 4 -1 4 C-1.33 4.99 -1.66 5.98 -2 7 C-2.66 5.68 -3.32 4.36 -4 3 C-2.68 2.01 -1.36 1.02 0 0 Z " fill="#374A75" transform="translate(97,39)"/>
<path d="M0 0 C0.66 0 1.32 0 2 0 C2 0.66 2 1.32 2 2 C2.66 2 3.32 2 4 2 C3.67 2.99 3.34 3.98 3 5 C1.68 4.67 0.36 4.34 -1 4 C-0.67 2.68 -0.34 1.36 0 0 Z " fill="#3B558C" transform="translate(89,114)"/>
<path d="M0 0 C1.9375 0.75 1.9375 0.75 4 2 C4.75 4.125 4.75 4.125 5 6 C3.0625 5.25 3.0625 5.25 1 4 C0.25 1.875 0.25 1.875 0 0 Z " fill="#2297A7" transform="translate(15,80)"/>
<path d="M0 0 C1.625 1.6875 1.625 1.6875 3 4 C2.1875 6.75 2.1875 6.75 1 9 C0.67 9 0.34 9 0 9 C-0.87890625 2.84765625 -0.87890625 2.84765625 -1 1 C-0.67 0.67 -0.34 0.34 0 0 Z " fill="#4878A1" transform="translate(76,69)"/>
<path d="M0 0 C0.66 0.33 1.32 0.66 2 1 C0.35 3.64 -1.3 6.28 -3 9 C-3.66 7.68 -4.32 6.36 -5 5 C-4.01 5 -3.02 5 -2 5 C-1.34 3.35 -0.68 1.7 0 0 Z " fill="#43678C" transform="translate(72,47)"/>
<path d="M0 0 C0 1.65 0 3.3 0 5 C-1.65 5.33 -3.3 5.66 -5 6 C-5 5.01 -5 4.02 -5 3 C-1.55555556 0 -1.55555556 0 0 0 Z " fill="#34769D" transform="translate(5,38)"/>
<path d="M0 0 C0.66 0.33 1.32 0.66 2 1 C-0.475 4.465 -0.475 4.465 -3 8 C-4 6 -4 6 -3.1875 3.4375 C-2 1 -2 1 0 0 Z " fill="#4574A0" transform="translate(7,30)"/>
<path d="" fill="#404060" transform="translate(0,0)"/>
<path d="" fill="#00FFFF" transform="translate(0,0)"/>
</svg>
